<?xml version="1.0" standalone="no"?>
<!DOCTYPE svg PUBLIC "-//W3C//DTD SVG 20010904//EN"
 "http://www.w3.org/TR/2001/REC-SVG-20010904/DTD/svg10.dtd">
<svg version="1.0" xmlns="http://www.w3.org/2000/svg"
 width="2315.000000pt" height="2315.000000pt" viewBox="0 0 2315.000000 2315.000000"
 preserveAspectRatio="xMidYMid meet">
<metadata>
Created by potrace 1.11, written by Peter Selinger 2001-2013
</metadata>
<g transform="translate(0.000000,2315.000000) scale(0.100000,-0.100000)"
fill="#000000" stroke="none">
<path d="M3099 17996 c-3 -3 -23 -8 -45 -11 -59 -8 -177 -46 -196 -63 -10 -8
-18 -12 -18 -7 0 4 -6 3 -12 -2 -7 -6 -53 -32 -103 -58 -49 -27 -92 -51 -95
-54 -8 -9 -82 -51 -112 -64 -16 -6 -28 -15 -28 -19 0 -4 -4 -8 -9 -8 -5 0 -38
-13 -73 -29 -107 -48 -200 -75 -338 -95 -88 -13 -145 -23 -145 -26 0 -1 -20
-3 -45 -6 -40 -3 -151 -30 -264 -64 -37 -11 -132 -51 -166 -69 -8 -4 -51 -27
-95 -51 -44 -23 -81 -47 -83 -51 -2 -5 -8 -9 -13 -9 -9 0 -150 -87 -159 -99
-3 -3 -22 -19 -42 -34 -67 -49 -228 -202 -228 -215 0 -4 -12 -20 -28 -37 -80
-88 -187 -316 -196 -421 -2 -17 -5 -35 -8 -40 -9 -15 -18 -123 -23 -284 -6
-175 -12 -244 -25 -289 -5 -17 -6 -31 -2 -31 4 0 3 -4 -3 -8 -5 -4 -19 -25
-30 -47 -23 -44 -83 -119 -175 -215 -34 -36 -81 -87 -103 -114 -23 -27 -50
-58 -60 -68 -9 -10 -14 -18 -11 -18 4 0 1 -6 -5 -13 -6 -8 -8 -17 -4 -20 3 -4
1 -7 -5 -7 -15 0 -76 -120 -92 -180 -44 -161 -48 -218 -21 -335 23 -103 57
-185 105 -258 42 -62 148 -177 164 -177 6 0 12 -4 14 -8 5 -13 95 -72 100 -66
3 2 11 -2 18 -11 7 -8 16 -15 21 -15 4 0 18 -4 31 -9 13 -5 27 -9 32 -9 5 0
12 -5 15 -10 3 -6 20 -13 36 -16 17 -3 50 -10 75 -16 101 -23 205 -28 320 -17
72 8 105 13 182 33 13 3 30 7 38 9 8 2 16 4 18 5 1 2 5 3 10 5 52 14 69 20 91
31 14 8 34 14 44 14 9 0 17 4 17 9 0 8 34 21 54 20 5 -1 12 4 15 9 3 6 13 12
21 14 8 2 21 9 28 16 8 7 18 10 23 6 5 -3 12 2 15 10 3 9 12 16 20 16 8 0 14
5 14 12 0 6 3 8 6 5 4 -4 19 2 33 12 39 28 116 68 159 82 64 22 91 25 142 14
49 -10 51 -10 85 -24 17 -7 32 -12 34 -11 2 1 7 -2 10 -7 3 -4 31 -24 61 -44
54 -35 173 -126 253 -194 10 -8 113 -90 162 -128 18 -13 59 -48 85 -70 14 -12
54 -47 90 -77 90 -77 170 -157 163 -164 -4 -3 1 -6 10 -6 10 0 17 -4 17 -8 0
-5 9 -18 19 -29 32 -34 29 -47 -26 -104 -83 -85 -123 -133 -123 -146 0 -7 -4
-13 -10 -13 -5 0 -10 -7 -10 -15 0 -7 -6 -18 -12 -22 -27 -17 -109 -212 -122
-288 -2 -17 -5 -30 -6 -30 -2 0 -11 -111 -11 -130 0 -30 10 -122 14 -135 3 -8
10 -37 17 -65 20 -88 128 -290 179 -335 3 -3 23 -24 44 -48 20 -23 37 -40 37
-38 0 2 20 -15 43 -38 59 -55 85 -76 97 -76 6 0 10 -4 10 -8 0 -4 22 -21 50
-37 28 -16 50 -33 50 -38 0 -4 4 -6 9 -3 5 4 11 3 13 -1 3 -7 44 -30 173 -97
22 -12 42 -24 43 -28 2 -5 8 -8 14 -8 8 0 84 -49 116 -75 65 -54 152 -158 152
-183 0 -4 11 -7 25 -7 29 2 29 1 14 60 -6 24 -10 47 -9 51 1 4 -2 10 -7 13 -4
3 -17 22 -27 41 -32 58 -120 135 -260 229 -44 30 -82 58 -84 63 -2 4 -9 8 -15
8 -16 0 -208 143 -254 188 -23 24 -74 102 -66 102 4 0 2 4 -4 8 -7 4 -15 19
-17 32 -2 14 -5 25 -6 25 -3 0 -12 58 -12 80 0 42 13 97 27 119 8 12 12 26 8
29 -3 4 -1 7 5 7 7 0 12 6 12 13 1 29 185 185 225 191 7 1 19 7 26 13 16 12
90 38 102 35 4 -1 7 2 7 6 0 5 6 9 13 9 6 0 26 4 42 8 17 3 44 8 60 11 143 21
157 4 63 -77 -86 -73 -129 -121 -137 -149 -8 -31 -6 -200 2 -200 4 0 6 -4 3
-8 -3 -5 2 -37 10 -73 9 -35 17 -68 18 -74 1 -5 5 -16 9 -22 5 -7 5 -17 2 -23
-3 -5 -2 -10 4 -10 5 0 12 -13 16 -30 4 -16 20 -57 36 -90 16 -33 29 -65 29
-70 0 -6 4 -10 8 -10 5 0 14 -16 22 -35 8 -19 17 -35 22 -35 4 0 14 -12 22
-27 13 -25 51 -67 96 -106 21 -18 154 -94 179 -102 12 -3 21 -11 21 -16 0 -6
4 -7 10 -4 6 3 10 2 10 -2 0 -5 15 -17 33 -26 49 -27 68 -87 73 -234 5 -151
-33 -250 -136 -353 -129 -130 -291 -183 -517 -169 -48 3 -54 16 -20 46 29 27
143 84 151 76 3 -4 6 -1 6 5 0 7 6 12 14 12 44 0 137 132 152 217 3 15 7 30
10 34 2 4 0 10 -6 14 -5 3 -10 2 -10 -4 0 -6 -11 -13 -24 -17 -13 -3 -35 -19
-47 -36 -77 -100 -183 -169 -299 -196 -26 -6 -147 -7 -263 -2 -38 1 -72 -1
-77 -6 -5 -5 -1 -26 9 -49 43 -94 149 -165 316 -211 81 -22 201 -30 305 -19
114 12 270 70 327 123 13 12 27 22 30 22 10 0 93 95 93 107 0 6 4 13 8 15 25
10 75 171 76 244 1 35 35 104 52 104 6 0 15 -19 19 -42 4 -24 9 -47 11 -53 13
-41 25 -134 29 -218 2 -42 6 -81 10 -86 3 -5 2 -12 -3 -15 -5 -3 -8 -24 -7
-48 3 -63 -39 -222 -75 -279 -16 -27 -30 -53 -30 -57 0 -8 -108 -122 -116
-122 -3 0 -20 -11 -38 -25 -18 -14 -38 -25 -44 -25 -7 0 -12 -5 -12 -11 0 -5
-4 -7 -10 -4 -5 3 -10 2 -10 -3 0 -5 -8 -12 -17 -15 -10 -3 -41 -14 -70 -25
-28 -11 -54 -17 -57 -14 -3 3 -6 0 -6 -7 0 -7 -7 -11 -15 -8 -8 4 -17 2 -21
-4 -3 -6 -12 -8 -20 -5 -7 3 -16 1 -19 -4 -3 -5 -13 -9 -23 -8 -9 0 -28 -3
-42 -6 -99 -25 -331 -24 -403 1 -12 4 -24 7 -27 8 -20 3 -70 32 -78 46 -10 15
-6 19 22 29 45 14 93 24 231 45 17 2 40 7 53 10 12 3 32 7 43 10 33 7 112 38
128 50 40 30 100 99 112 127 7 18 18 37 23 41 6 5 -5 6 -24 3 -19 -4 -41 -7
-47 -8 -7 -1 -13 -5 -13 -10 0 -4 -5 -8 -11 -8 -6 0 -41 -14 -78 -32 -36 -18
-69 -31 -73 -30 -5 1 -8 -2 -8 -8 0 -6 -3 -9 -7 -8 -5 1 -24 -3 -43 -10 -19
-6 -46 -14 -60 -16 -14 -3 -25 -5 -25 -6 0 -11 -211 -16 -280 -6 -36 5 -159
38 -195 53 -8 3 -21 5 -27 4 -7 -1 -13 3 -13 9 0 6 -5 8 -10 5 -6 -4 -16 -3
-23 2 -7 5 -30 8 -52 8 l-40 0 0 -45 c0 -134 118 -289 275 -362 42 -20 91 -40
105 -44 6 -1 38 -10 72 -19 79 -20 95 -24 163 -31 94 -10 171 -8 345 11 17 2
41 8 55 13 14 5 28 10 33 10 23 1 72 16 95 28 15 8 32 14 39 14 6 0 28 9 47
21 20 12 36 17 36 12 0 -4 4 -3 8 2 9 13 42 34 65 41 9 4 17 10 17 15 0 5 4 9
10 9 20 0 143 116 186 175 31 42 73 85 83 85 3 0 25 -18 49 -40 24 -22 57 -47
73 -57 16 -10 29 -21 29 -25 0 -4 5 -8 10 -8 6 0 27 -11 48 -24 20 -12 40 -24
45 -24 4 -1 20 -8 36 -16 16 -9 31 -12 35 -9 3 4 6 1 6 -5 0 -7 3 -11 8 -10 4
2 25 -4 47 -14 40 -16 69 -27 83 -29 4 0 13 -5 20 -11 6 -6 12 -7 12 -4 0 4 9
2 21 -4 11 -6 28 -13 37 -15 17 -3 105 -31 132 -42 8 -3 20 -7 26 -8 14 -3
132 -43 159 -54 11 -5 34 -14 50 -22 17 -7 32 -13 35 -14 3 0 28 -11 55 -23
28 -13 52 -23 55 -24 3 0 15 -4 26 -8 25 -10 52 6 95 54 l27 31 74 -24 c40
-14 80 -28 88 -32 20 -10 52 -21 69 -25 7 -1 36 -11 65 -22 76 -30 90 -35 99
-37 4 -2 9 -4 12 -5 3 -1 8 -3 13 -5 4 -1 15 -5 25 -8 22 -9 36 -14 117 -44
36 -13 88 -31 115 -39 28 -9 53 -21 56 -26 3 -5 9 -9 13 -8 4 1 30 -5 57 -15
28 -9 53 -14 56 -12 17 18 -89 153 -147 186 -235 136 -474 256 -502 252 -5 -1
-8 4 -8 11 0 6 -3 9 -6 5 -4 -3 -21 0 -39 8 -19 7 -36 11 -39 7 -3 -3 -6 -1
-6 5 0 5 -6 10 -12 10 -7 1 -44 11 -83 23 -38 12 -82 24 -97 27 -16 3 -28 9
-28 12 0 4 -6 8 -12 9 -24 1 -119 29 -168 49 -8 4 -18 7 -22 7 -3 1 -9 4 -13
8 -4 4 -13 4 -20 2 -7 -3 -16 -1 -20 5 -3 6 -17 11 -30 11 -13 0 -27 5 -30 10
-3 6 -15 10 -25 10 -10 0 -31 5 -47 12 -15 6 -30 12 -33 13 -3 0 -32 9 -65 20
-33 10 -64 19 -70 21 -5 1 -23 8 -40 15 -16 7 -33 13 -37 13 -3 1 -9 4 -13 8
-4 4 -13 4 -21 1 -8 -3 -14 0 -14 5 0 12 -39 7 -51 -5 -5 -5 -9 -23 -11 -41
-2 -30 -38 -80 -38 -54 0 7 -7 12 -15 12 -8 0 -15 4 -15 9 0 5 -9 11 -20 14
-31 8 -33 9 -59 18 -27 11 -85 20 -151 24 -25 1 -48 3 -53 4 -4 0 -5 13 -2 29
3 15 8 50 11 77 3 28 7 56 10 64 6 20 17 128 18 183 1 27 4 48 8 48 4 0 5 6 3
13 -2 6 -7 46 -10 87 -5 72 -12 125 -15 125 -1 0 -3 9 -5 21 -3 11 -18 61 -36
110 -17 49 -31 95 -32 102 0 6 -5 12 -10 12 -6 0 -7 3 -4 7 4 3 3 11 -2 17
-12 15 -61 136 -61 151 0 21 104 61 166 64 19 1 74 63 74 82 0 10 4 20 9 24
10 6 46 105 43 118 -1 4 1 7 6 7 4 0 8 15 10 33 2 17 4 41 5 52 7 60 -50 141
-120 170 -56 24 -67 20 -88 -32 -25 -60 -26 -65 -26 -147 0 -49 -6 -80 -19
-105 -11 -20 -19 -32 -20 -27 0 5 -7 3 -16 -5 -22 -18 -184 -16 -184 3 0 4 -6
8 -13 8 -57 0 -212 120 -297 230 -19 25 -37 47 -41 50 -26 22 -131 200 -155
265 -30 81 -23 188 15 209 21 13 50 15 57 5 2 -5 11 -6 19 -2 8 3 15 -1 15 -8
0 -7 3 -10 6 -6 4 3 30 -7 59 -23 l52 -29 -2 47 c-1 26 -9 61 -18 79 -22 41
-22 62 1 62 53 2 72 6 72 14 0 4 4 5 10 2 11 -7 65 19 94 44 42 37 53 81 71
271 10 97 21 175 32 220 3 14 7 34 8 45 2 11 6 34 9 50 7 39 15 97 22 160 3
28 11 53 17 57 7 4 9 8 4 8 -24 0 102 170 127 170 3 0 30 16 61 35 30 20 58
36 62 37 12 1 57 22 63 28 3 3 10 5 15 6 28 1 165 77 203 112 46 43 50 53 26
76 -8 9 -12 16 -9 16 4 0 -10 15 -31 33 -21 17 -48 42 -61 54 -13 12 -23 19
-23 15 -1 -7 -30 57 -30 64 0 3 9 0 20 -6 11 -6 20 -8 20 -4 0 3 7 0 16 -7 67
-56 148 15 143 124 -3 64 -22 116 -67 185 -38 58 -65 80 -153 124 -39 19 -58
35 -55 43 3 8 0 16 -7 19 -7 2 -3 5 8 6 20 2 25 2 60 -7 11 -3 32 -7 48 -10
15 -3 30 -9 33 -14 3 -5 16 -9 29 -9 13 0 27 -4 30 -10 3 -5 15 -10 26 -10 10
0 19 -5 19 -11 0 -5 4 -8 9 -4 5 3 17 -2 25 -11 9 -8 16 -13 16 -9 0 10 60
-29 61 -40 0 -5 2 -30 4 -55 2 -25 6 -85 10 -135 4 -49 8 -102 8 -117 1 -32 5
-33 33 -13 12 8 24 11 28 7 4 -3 10 -2 14 3 4 6 24 18 44 29 20 10 46 27 58
38 11 10 20 15 20 11 0 -4 10 3 23 17 13 14 42 40 65 59 23 18 58 49 78 67 20
19 52 47 72 62 21 15 39 30 42 33 11 13 138 69 170 75 62 11 110 12 116 2 7
-11 -34 -90 -52 -101 -8 -5 -12 -12 -9 -18 4 -5 2 -9 -3 -9 -5 0 -13 -10 -17
-22 -4 -13 -9 -30 -12 -38 -7 -21 -12 -133 -7 -142 5 -8 66 24 94 50 21 20 50
85 55 124 2 15 13 45 25 67 18 37 24 41 59 41 71 0 118 -30 112 -72 -1 -5 4
-8 10 -8 6 0 9 -7 6 -15 -4 -8 -2 -17 4 -20 5 -4 7 -11 4 -16 -4 -5 -1 -9 6
-9 7 0 9 -3 6 -7 -4 -3 0 -17 8 -30 9 -13 13 -23 11 -23 -3 0 1 -12 9 -27 8
-15 12 -30 9 -35 -3 -4 0 -8 5 -8 6 0 11 -6 11 -14 0 -7 8 -31 17 -52 9 -22
18 -44 19 -50 1 -6 5 -21 9 -33 8 -26 7 -26 -53 4 -28 14 -55 25 -61 25 -6 0
-11 4 -11 10 0 5 -3 9 -7 8 -14 -3 -63 14 -63 22 0 4 -11 10 -25 12 -35 7 -33
-20 7 -81 27 -41 122 -121 143 -121 8 0 68 -43 77 -55 4 -5 3 -14 -2 -20 -4
-5 -9 -14 -10 -20 -4 -20 -21 -60 -28 -65 -4 -3 -21 -32 -39 -66 l-32 -61 82
3 c45 2 91 5 102 8 11 2 23 5 27 5 4 1 26 19 50 40 24 22 56 51 72 65 l30 25
64 -51 c89 -70 96 -76 162 -139 32 -32 56 -60 53 -63 -4 -3 -2 -6 4 -6 10 0
56 -66 57 -82 1 -3 4 -10 9 -14 4 -4 7 -20 7 -35 0 -15 4 -30 10 -34 5 -3 7
-12 4 -19 -3 -8 -7 -27 -8 -43 -4 -49 -28 -106 -69 -168 -45 -66 -177 -205
-196 -205 -6 0 -11 -4 -11 -9 0 -5 -13 -14 -30 -21 -16 -7 -30 -16 -30 -21 0
-4 -16 -13 -35 -20 -19 -7 -35 -16 -35 -20 0 -4 -15 -12 -32 -19 -18 -7 -68
-30 -110 -51 -43 -21 -78 -36 -78 -33 0 3 -6 0 -12 -6 -24 -19 -88 -59 -88
-54 0 2 -15 -12 -32 -33 -18 -21 -39 -44 -45 -51 -12 -13 -17 -27 -14 -44 0
-5 -3 -8 -7 -8 -5 0 -9 -6 -10 -12 -1 -7 -4 -34 -7 -59 -5 -34 -3 -46 7 -46
23 -1 93 -15 100 -19 4 -3 22 -7 40 -9 18 -3 43 -7 56 -10 64 -15 68 -15 177
-30 162 -23 304 -23 405 -2 43 9 108 50 128 81 29 43 39 129 23 206 -19 95
-21 105 -27 119 -2 8 -7 30 -10 49 -3 20 -10 46 -15 59 -10 27 -12 107 -3 141
4 12 14 22 23 22 21 0 75 -80 98 -145 10 -27 23 -53 28 -57 6 -4 7 -8 2 -8 -4
0 -1 -16 7 -35 8 -19 13 -35 11 -35 -2 0 3 -19 11 -42 9 -24 17 -50 19 -58 3
-15 14 -45 37 -97 6 -16 13 -37 15 -47 2 -11 7 -24 11 -30 5 -6 14 -31 21 -56
8 -25 16 -52 19 -60 3 -8 6 -22 8 -30 2 -8 6 -31 10 -50 4 -19 7 -44 7 -55 0
-40 -24 -134 -39 -145 -7 -7 -14 -17 -14 -24 0 -31 -270 -246 -309 -246 -6 0
-11 -4 -11 -8 0 -5 -17 -16 -37 -25 -100 -43 -133 -56 -133 -51 0 2 -9 0 -21
-6 -11 -6 -28 -13 -37 -15 -9 -3 -35 -9 -57 -15 -22 -6 -49 -12 -60 -14 -11
-2 -36 -7 -55 -11 -46 -9 -105 -16 -155 -19 -22 -1 -45 -5 -50 -8 -9 -5 -155
-4 -725 3 -126 2 -175 -12 -206 -59 -24 -35 -25 -45 -6 -78 12 -23 87 -66 137
-79 17 -5 37 -10 45 -12 8 -2 24 -6 35 -7 11 -2 36 -8 55 -13 38 -10 234 -9
400 2 101 7 212 9 276 6 29 -1 31 -4 54 -83 13 -46 28 -94 33 -108 6 -14 11
-29 12 -35 0 -5 4 -17 7 -25 13 -31 68 -187 68 -192 0 -3 8 -23 17 -44 9 -22
16 -42 15 -46 -1 -5 2 -8 6 -8 4 0 8 -10 9 -22 1 -11 7 -24 13 -28 7 -4 11
-10 11 -14 -2 -20 13 -66 22 -66 6 0 8 -3 4 -6 -3 -4 1 -21 10 -38 10 -17 16
-37 15 -43 -2 -7 1 -13 6 -13 5 0 9 -6 9 -12 0 -7 19 -56 41 -108 22 -52 56
-141 76 -197 73 -210 117 -293 255 -480 24 -32 64 -53 111 -58 14 -2 37 -6 52
-8 14 -3 29 -3 31 0 3 2 -3 30 -14 60 -10 30 -16 60 -12 66 3 6 1 7 -5 3 -8
-5 -12 1 -12 18 0 14 -5 28 -10 31 -6 4 -8 11 -5 16 4 5 2 9 -4 9 -6 0 -8 6
-5 14 3 8 1 17 -5 21 -20 12 -11 57 17 94 46 60 54 81 40 100 -11 13 -100 108
-185 197 -13 13 -23 25 -23 28 0 3 -13 19 -30 36 -16 17 -30 37 -30 45 0 8 -4
15 -9 15 -14 0 -39 93 -34 129 7 62 28 70 92 37 17 -9 31 -22 31 -28 0 -6 3
-9 6 -6 3 3 26 -17 52 -46 53 -58 189 -193 218 -216 10 -8 51 -37 89 -65 39
-27 76 -55 83 -62 7 -7 18 -13 23 -13 16 0 171 -159 165 -169 -4 -5 -24 -5
-48 1 -143 33 -205 25 -227 -31 -10 -24 -8 -100 4 -176 4 -29 13 -110 20 -185
1 -19 6 -81 10 -136 8 -126 25 -204 56 -248 31 -46 51 -56 115 -61 76 -6 88 9
80 94 -7 78 -50 232 -93 331 -3 8 -7 20 -9 25 -10 36 -17 64 -21 93 -5 31 -4
33 18 27 13 -3 38 -7 54 -10 17 -2 39 -6 50 -9 11 -2 23 -5 26 -5 4 -1 31 -23
60 -51 30 -27 59 -50 65 -50 14 0 7 -91 -11 -154 -8 -27 -13 -52 -10 -54 3 -3
1 -10 -4 -16 -5 -6 -11 -30 -15 -54 l-5 -42 37 6 c20 3 57 8 82 11 25 3 47 7
50 10 3 3 5 55 6 116 1 89 5 122 21 162 42 101 75 168 93 187 16 17 20 18 59
5 25 -9 44 -11 47 -5 3 5 11 7 17 5 7 -2 17 3 23 12 9 12 8 21 -5 40 -20 32
-171 178 -171 167 0 -7 -73 57 -133 116 -63 62 -67 82 -15 67 68 -19 135 -61
203 -124 39 -37 94 -87 123 -112 29 -25 66 -58 81 -72 50 -45 82 -65 128 -82
39 -14 107 -18 118 -7 9 8 -50 145 -73 171 -8 9 -12 17 -8 17 8 0 3 6 -64 80
-28 30 -50 60 -50 67 0 7 -4 13 -10 13 -5 0 -10 6 -10 14 0 8 -3 16 -8 18 -4
2 -20 37 -36 78 -60 157 -163 206 -448 213 -43 1 -78 4 -78 7 0 3 -24 5 -53 5
-28 -1 -70 2 -92 6 -22 4 -53 10 -70 12 -83 15 -150 45 -196 88 -71 66 -199
145 -213 132 -3 -4 -6 -1 -6 6 0 7 -4 10 -9 6 -5 -3 -12 -1 -16 5 -4 6 -10 8
-15 5 -5 -3 -11 -1 -15 5 -4 6 -11 8 -16 5 -5 -4 -9 -1 -9 5 0 6 -6 10 -12 8
-7 -1 -22 3 -33 9 -11 6 -22 10 -25 10 -14 -4 -120 66 -155 103 -22 23 -48 49
-57 58 -10 9 -18 22 -18 29 0 7 -4 13 -10 13 -5 0 -10 7 -10 15 0 8 -4 15 -9
15 -5 0 -14 14 -21 30 -7 17 -17 30 -22 30 -5 0 -6 5 -3 10 3 6 1 10 -4 10 -6
0 -10 3 -9 8 1 4 -10 32 -24 62 -14 30 -36 83 -48 118 l-23 62 29 25 c15 13
42 27 59 31 16 4 33 11 36 16 3 5 16 10 27 11 12 1 22 6 22 11 0 5 3 6 7 3 3
-4 12 -2 19 3 6 6 22 13 35 15 12 3 26 10 30 16 4 6 12 8 18 5 6 -4 11 -2 11
3 0 6 3 10 8 9 4 -1 17 3 28 10 12 6 24 8 28 5 3 -3 6 -2 6 3 0 6 25 18 55 29
30 10 55 22 55 27 0 4 4 7 8 5 9 -2 189 112 215 136 7 7 36 33 64 60 29 26 51
47 49 47 -2 0 12 17 31 38 40 42 77 111 88 161 11 50 13 151 3 157 -4 3 -3 14
2 25 7 13 7 19 0 19 -5 0 -10 11 -10 25 0 34 -32 149 -90 330 -63 194 -109
346 -115 373 -6 32 -34 140 -56 214 -11 37 -18 72 -15 77 3 5 -1 12 -10 15 -8
3 -12 10 -9 16 3 5 2 10 -2 10 -5 0 -9 10 -9 23 0 24 -71 180 -85 185 -5 2 -9
9 -9 15 0 14 -74 102 -124 147 -22 19 -53 47 -69 63 -17 15 -33 27 -37 27 -5
0 -21 12 -37 26 -33 29 -204 143 -284 189 -111 65 -166 144 -194 285 -2 8 -4
16 -5 18 -2 1 -4 7 -5 12 -1 6 -4 12 -5 15 -1 3 -3 8 -4 13 -1 4 -7 16 -13 27
-6 11 -12 23 -12 27 -3 18 -38 85 -53 102 -10 11 -18 25 -18 31 0 12 -39 27
-117 45 -33 8 -53 17 -53 26 0 22 44 56 107 82 31 13 67 30 79 39 25 16 66 93
70 131 5 41 13 54 30 48 9 -3 21 -3 27 1 7 4 20 8 30 9 9 1 20 3 25 4 4 1 12
3 17 5 34 8 55 19 55 28 0 6 3 8 6 4 9 -9 38 21 77 81 19 29 53 72 75 96 93
99 95 168 7 244 -76 67 -234 123 -382 135 -24 2 -46 6 -49 10 -4 3 -14 3 -23
-2 -9 -5 -25 -5 -36 -1 -11 4 -33 4 -50 1 -51 -11 -59 -8 -73 34 -28 89 -174
160 -317 155 -138 -5 -181 -1 -260 21 -95 26 -220 28 -302 4 -56 -16 -184 -74
-193 -86 -3 -4 -17 -13 -30 -18 -27 -12 -62 -32 -70 -42 -6 -6 -128 -65 -151
-72 -9 -3 -29 5 -45 19 -16 13 -35 23 -41 24 -7 0 -13 7 -13 15 0 8 -4 15 -9
15 -5 0 -31 21 -58 48 -28 26 -84 77 -124 115 -41 37 -81 73 -89 81 -20 18
-141 96 -150 96 -16 0 -129 -106 -155 -145 -42 -63 -46 -75 -24 -75 10 0 19
-4 19 -10 0 -5 6 -10 14 -10 8 0 16 -3 18 -7 2 -5 23 -18 48 -31 70 -37 124
-66 135 -75 5 -4 38 -25 71 -46 94 -60 194 -162 194 -198 0 -7 -69 -81 -153
-165 -229 -228 -310 -340 -459 -638 -29 -58 -56 -107 -61 -108 -4 -2 -5 -8 -1
-13 3 -5 0 -9 -5 -9 -6 0 -10 -3 -9 -7 1 -5 -4 -24 -11 -43 -8 -19 -15 -37
-16 -40 -1 -3 -5 -12 -8 -20 -13 -30 -68 -206 -73 -230 -2 -14 -7 -32 -11 -40
-3 -8 -7 -22 -8 -30 -1 -8 -5 -26 -8 -40 -13 -57 -16 -69 -22 -120 -4 -29 -9
-62 -11 -74 -8 -35 -17 -166 -18 -248 0 -57 -4 -78 -13 -78 -35 0 -139 133
-158 203 -2 4 -4 9 -5 12 -1 3 -3 8 -5 13 -14 53 -22 92 -31 147 -6 40 -5 231
1 273 12 77 23 137 25 137 2 0 5 15 13 56 3 15 12 40 21 57 9 17 16 38 16 46
0 8 7 22 16 30 8 9 13 16 10 16 -13 0 75 117 120 160 49 47 99 137 64 115 -5
-3 -19 -8 -30 -11 -11 -2 -28 -6 -37 -8 -30 -7 -127 -47 -140 -58 -7 -6 -13
-7 -13 -2 0 5 -4 5 -8 -1 -8 -11 -69 -55 -76 -55 -10 0 -116 -110 -116 -120 0
-5 -4 -10 -10 -10 -5 0 -10 -7 -10 -15 0 -7 -6 -18 -12 -22 -16 -10 -79 -130
-106 -198 -10 -27 -22 -59 -27 -70 -4 -11 -9 -27 -11 -35 -2 -8 -7 -23 -13
-35 -5 -11 -17 -47 -27 -80 -9 -33 -20 -63 -23 -67 -3 -4 -35 13 -71 38 -36
25 -76 52 -90 61 -155 100 -197 131 -244 179 -64 65 -102 134 -123 224 -14 56
5 206 29 237 5 7 7 16 4 21 -3 6 1 15 9 22 8 7 15 17 15 23 0 16 92 167 102
167 4 0 8 6 8 14 0 12 119 137 191 201 75 66 128 115 124 115 -3 0 9 16 27 35
17 20 33 43 34 52 2 9 9 20 16 24 7 5 9 9 3 9 -5 0 -4 5 3 12 19 19 14 30 -10
23 -13 -4 -52 -20 -88 -37 -91 -42 -99 -45 -156 -67 -29 -11 -60 -20 -70 -20
-11 0 -37 -4 -59 -9 -35 -7 -99 -7 -220 1 -16 1 -32 5 -35 9 -3 3 -19 8 -35
11 -17 2 -39 7 -50 11 -11 5 -37 14 -57 22 -21 7 -94 41 -163 75 -69 34 -127
60 -130 58 -11 -11 98 -169 116 -169 4 0 25 -17 47 -37 22 -21 64 -61 93 -88
79 -74 118 -128 114 -160 -5 -48 -19 -95 -26 -95 -6 0 -7 -4 -4 -10 3 -5 1
-10 -5 -10 -6 0 -8 -4 -5 -10 3 -5 1 -10 -4 -10 -6 0 -10 -3 -9 -8 6 -18 -118
-142 -142 -142 -5 0 -10 -5 -10 -11 0 -6 -7 -9 -15 -5 -8 3 -15 2 -15 -3 0
-13 -46 -22 -128 -27 -55 -2 -83 1 -118 16 -43 19 -126 71 -151 96 -22 21 -83
56 -92 52 -13 -4 27 -117 57 -158 14 -19 38 -47 54 -62 38 -37 118 -91 118
-81 0 4 4 3 8 -3 4 -6 36 -26 72 -43 36 -18 73 -39 82 -48 20 -18 14 -42 -10
-38 -9 1 -22 -1 -27 -6 -10 -8 -147 -5 -175 3 -26 9 -53 20 -127 54 -80 38
-103 43 -83 19 7 -8 10 -15 6 -15 -4 0 3 -19 15 -41 22 -45 62 -89 79 -89 5 0
10 -4 10 -10 0 -5 7 -10 15 -10 8 0 15 -4 15 -9 0 -5 11 -12 25 -15 14 -4 25
-11 25 -16 0 -6 6 -10 13 -10 6 0 27 -13 45 -28 43 -35 36 -54 -32 -87 -58
-28 -58 -28 -176 -54 -87 -18 -300 -23 -365 -7 -156 37 -243 88 -306 178 -13
18 -26 35 -29 38 -11 9 -50 96 -50 111 0 9 -3 19 -7 23 -4 3 -8 14 -10 24 -2
9 -6 31 -9 47 -12 58 -7 256 7 273 2 2 2 2 13 52 5 19 11 37 15 40 3 3 15 23
26 44 11 22 32 54 48 70 15 17 27 34 27 38 0 5 6 8 14 8 7 0 25 11 40 25 15
14 33 25 41 25 7 0 15 5 17 10 2 6 30 -6 63 -26 149 -91 155 -93 235 -90 41 2
89 7 105 11 17 4 36 8 43 8 26 1 9 26 -60 88 -182 161 -218 211 -243 334 -4
17 -7 41 -7 55 -1 35 11 170 16 178 2 4 7 23 10 44 3 20 14 58 25 85 10 26 19
50 19 53 -1 11 86 185 94 188 4 2 8 10 8 18 0 8 5 14 11 14 5 0 7 5 4 10 -3 6
-2 10 2 10 5 0 19 18 33 40 14 22 28 40 32 40 5 0 8 6 8 13 0 6 16 29 35 51
19 21 35 42 35 48 0 5 5 6 10 3 6 -3 10 -2 10 2 0 12 65 78 130 133 29 25 59
51 66 58 7 6 17 12 22 12 6 0 12 4 14 9 5 14 161 108 226 137 31 13 65 29 76
35 10 6 26 12 35 14 9 2 51 13 93 24 77 20 176 34 233 33 29 0 57 -4 140 -18
67 -11 182 -61 269 -117 45 -29 131 -128 166 -190 32 -58 39 -65 50 -52 7 8 9
15 6 15 -4 0 -2 9 4 21 18 32 22 59 22 124 0 64 -3 83 -15 103 -5 6 -5 12 -2
12 3 0 -15 41 -41 90 -25 50 -50 90 -55 90 -5 0 -9 5 -9 11 0 5 -15 29 -32 52
-46 58 -55 67 -68 67 -7 0 -10 7 -7 15 4 8 2 17 -3 20 -18 11 -10 44 12 51 12
3 37 13 57 22 20 9 39 15 44 14 4 -1 7 3 7 10 0 6 3 9 6 6 3 -4 17 0 31 7 15
8 30 12 35 9 4 -3 8 0 8 5 0 6 8 11 18 11 10 0 22 3 26 8 4 4 12 8 17 8 5 1
11 3 14 4 3 1 10 4 15 5 6 1 11 3 13 5 4 3 32 10 97 22 85 17 111 16 230 -7
54 -10 240 -154 240 -185 0 -5 4 -10 8 -12 11 -4 72 -94 72 -106 0 -6 4 -12 8
-14 14 -5 58 -110 77 -182 25 -93 25 -240 0 -361 -10 -49 -86 -235 -96 -235
-5 0 -8 -3 -7 -7 3 -11 -53 -117 -63 -121 -5 -2 -9 -9 -9 -15 0 -7 -16 -36
-35 -66 -19 -30 -33 -56 -31 -59 5 -4 68 27 76 37 3 4 21 18 40 31 43 28 190
176 190 190 0 5 5 10 10 10 6 0 10 7 10 15 0 7 6 18 13 22 6 4 19 22 28 38 60
109 87 164 81 169 -3 3 0 6 7 6 7 0 10 4 7 8 -3 5 1 20 9 35 7 14 11 28 7 31
-3 3 -1 6 4 6 5 0 10 8 11 18 1 18 10 57 13 57 2 0 4 11 14 65 20 104 21 263
2 350 -3 14 -8 39 -12 55 -7 40 -35 118 -46 130 -4 5 -8 17 -8 27 0 10 -4 18
-10 18 -5 0 -10 5 -10 11 0 29 -173 239 -198 239 -4 0 -23 14 -42 30 -19 16
-40 30 -47 30 -6 0 -13 3 -15 8 -10 22 -163 83 -243 96 -16 3 -46 8 -65 11
-19 4 -38 4 -41 1z"/>
<path d="M21678 16578 c-163 -10 -310 -32 -460 -69 -139 -34 -382 -127 -399
-152 -3 -5 -9 -8 -13 -7 -4 1 -30 -12 -57 -29 -27 -17 -50 -30 -52 -28 -1 1
-19 -15 -40 -36 -21 -20 -42 -37 -45 -37 -21 0 -126 -154 -138 -202 -1 -5 -3
-9 -4 -10 -4 -5 -10 -50 -13 -103 -4 -57 15 -141 44 -198 20 -38 116 -141 154
-164 29 -18 122 -61 148 -68 4 -2 9 -4 12 -5 3 -1 10 -4 15 -5 6 -1 12 -4 15
-5 3 -1 8 -3 13 -4 4 -1 23 -6 42 -11 19 -4 46 -9 60 -11 14 -1 25 -3 25 -4 0
-2 15 -4 110 -16 47 -6 556 -10 695 -5 71 2 255 -6 310 -14 19 -3 46 -7 60 -9
96 -13 206 -58 257 -104 54 -49 75 -92 74 -155 0 -67 -4 -84 -31 -134 -21 -40
-131 -153 -150 -153 -5 0 -15 -6 -22 -13 -14 -14 -124 -67 -148 -72 -8 -2 -28
-8 -44 -14 -16 -7 -31 -9 -34 -6 -3 2 -10 1 -17 -5 -10 -8 -77 -18 -165 -25
-14 -1 -28 3 -32 9 -5 8 -8 7 -8 -1 0 -7 -9 -10 -22 -7 -13 2 -46 8 -75 14
-71 13 -139 45 -159 75 -21 32 -21 88 1 206 4 19 -74 58 -157 80 -27 7 -48 17
-48 22 0 4 -4 6 -8 3 -8 -5 -68 8 -102 21 -8 3 -18 5 -23 5 -4 -1 -28 3 -55 9
-26 6 -56 12 -67 14 -301 41 -416 23 -477 -77 -13 -21 -26 -38 -30 -38 -5 0
-8 -8 -8 -18 0 -10 -7 -27 -15 -38 -8 -12 -12 -24 -8 -27 3 -4 1 -13 -5 -20
-30 -35 -31 -211 -2 -317 7 -25 11 -47 10 -49 -1 -2 2 -7 7 -10 4 -3 19 -27
32 -53 24 -48 94 -128 112 -128 6 0 7 -4 4 -10 -3 -5 1 -10 9 -10 9 0 16 -5
16 -11 0 -5 5 -7 10 -4 6 3 10 2 10 -3 0 -5 24 -21 53 -36 28 -15 59 -31 67
-35 29 -16 66 -32 80 -35 8 -2 28 -8 44 -15 16 -6 38 -13 50 -16 11 -2 22 -4
24 -6 1 -1 5 -2 10 -3 4 -1 16 -5 27 -9 11 -3 36 -8 55 -11 19 -2 42 -7 50 -9
92 -33 487 -34 665 -3 17 3 48 7 70 11 55 7 76 12 119 23 20 6 36 8 36 5 0 -3
6 0 13 6 8 6 16 8 20 5 3 -3 14 -1 25 5 10 6 34 13 52 16 18 3 41 10 51 16 11
5 19 7 19 3 0 -3 7 -1 15 6 8 7 15 9 15 5 0 -4 7 -2 15 5 8 7 15 9 15 4 0 -4
5 -3 12 4 7 7 17 12 24 12 6 0 29 8 50 17 22 9 42 16 47 15 4 -1 7 3 7 10 0 6
3 8 6 5 4 -4 48 15 98 41 122 64 140 75 149 90 5 7 12 10 18 7 5 -4 9 -1 9 4
0 6 4 11 10 11 12 0 47 29 112 91 26 26 48 44 48 40 0 -3 16 17 35 44 19 28
38 55 42 60 40 53 93 220 93 293 0 51 -36 196 -54 215 -6 7 -12 19 -14 27 -2
8 -14 29 -28 47 -13 17 -24 34 -24 36 0 3 -29 34 -65 70 -36 36 -65 63 -65 61
0 -3 -23 13 -50 35 -28 22 -60 43 -73 47 -12 4 -24 10 -27 13 -9 12 -96 49
-166 71 -38 12 -76 24 -84 27 -8 3 -24 7 -35 8 -11 1 -51 6 -90 11 -87 11
-331 11 -530 -1 -143 -8 -355 -8 -420 -1 -72 8 -132 18 -160 27 -93 27 -167
55 -217 82 -46 25 -58 36 -59 56 -3 57 -1 122 5 145 6 23 86 126 86 110 0 -4
10 2 23 13 22 20 94 61 110 61 4 0 19 8 33 16 13 9 24 15 24 12 0 -2 27 4 59
14 46 14 93 18 203 17 79 0 154 -4 168 -8 14 -4 43 -10 65 -13 22 -3 50 -8 63
-11 12 -3 31 -7 43 -10 11 -2 29 -7 40 -10 10 -4 29 -8 42 -9 12 -2 29 -6 37
-9 8 -4 29 -8 45 -11 17 -2 30 -5 30 -6 0 -1 15 -3 33 -5 21 -1 32 2 32 11 0
8 4 14 9 14 22 0 126 167 165 264 29 75 26 90 -22 99 -15 3 -62 12 -104 21
-128 26 -314 35 -490 24z"/>
<path d="M19115 16449 c-82 -28 -151 -51 -153 -53 -1 -2 6 -29 17 -60 11 -31
17 -56 14 -56 -3 0 0 -6 6 -13 6 -8 13 -24 15 -38 3 -13 5 -24 6 -24 0 0 11
-29 23 -65 16 -45 27 -64 37 -61 8 2 20 4 25 6 6 1 17 4 25 7 103 35 107 35
114 1 20 -89 27 -201 14 -209 -5 -3 -6 -9 -3 -14 7 -12 -40 -98 -66 -123 -15
-14 -17 -22 -9 -37 6 -11 14 -20 19 -20 5 0 24 -13 42 -30 19 -16 37 -30 42
-30 15 0 107 108 108 127 0 5 8 16 16 26 9 9 13 17 10 17 -3 0 0 17 7 38 8 21
13 57 12 80 -1 22 1 39 6 36 4 -3 5 2 2 10 -3 8 -7 29 -9 48 -2 18 -4 33 -5
33 -1 0 -3 11 -5 25 -5 30 -13 63 -16 70 -1 3 -3 10 -4 15 -1 6 -5 17 -8 25
-11 27 -69 195 -71 205 -9 44 -40 115 -49 114 -7 0 -79 -23 -162 -50z"/>
<path d="M18188 15985 c-2 -1 -43 -5 -93 -8 -138 -10 -319 -63 -394 -116 -16
-12 -32 -21 -35 -21 -6 0 -53 -39 -80 -66 -11 -12 -54 -59 -118 -132 -21 -23
-38 -39 -38 -35 0 4 -7 -3 -16 -15 -18 -25 -37 -28 -57 -8 -19 20 -188 116
-203 116 -7 0 -19 6 -26 13 -7 6 -22 13 -33 14 -11 1 -42 7 -70 14 -61 15
-265 19 -282 6 -7 -5 -13 -7 -13 -4 0 4 -64 -9 -142 -28 -32 -7 -142 -59 -193
-89 -54 -33 -95 -67 -158 -133 l-40 -41 -29 39 c-53 74 -101 87 -228 63 -171
-32 -313 -53 -321 -48 -5 3 -9 1 -9 -4 0 -5 -22 -12 -49 -15 -71 -8 -202 -49
-208 -64 -7 -18 41 -97 69 -111 13 -6 37 -14 55 -17 125 -20 173 -89 271 -392
6 -18 8 -33 5 -33 -3 0 1 -8 10 -18 10 -10 15 -21 12 -24 -3 -3 0 -18 6 -34 7
-16 13 -33 14 -39 2 -5 9 -30 16 -55 7 -25 12 -48 11 -52 -1 -5 2 -8 8 -8 5 0
7 -6 4 -13 -2 -7 2 -29 10 -48 8 -20 28 -87 45 -150 17 -63 40 -148 51 -189
12 -41 27 -97 35 -125 7 -27 23 -86 35 -130 12 -44 23 -84 24 -90 13 -52 21
-82 43 -159 13 -49 26 -101 28 -115 5 -31 42 -146 58 -181 44 -97 119 -167
199 -188 82 -22 207 2 291 55 59 37 77 86 73 203 -2 52 -6 106 -9 120 -3 14
-8 39 -11 55 -2 17 -14 66 -26 110 -12 44 -22 86 -23 93 0 6 -5 12 -10 12 -6
0 -8 3 -4 6 3 3 -1 23 -8 45 -8 22 -15 41 -15 44 -1 8 -11 38 -20 60 -4 11
-13 40 -20 64 -7 25 -15 54 -20 65 -4 12 -8 24 -9 28 -1 4 -9 27 -17 50 -77
213 -117 414 -94 482 23 69 96 134 195 171 126 48 288 36 368 -27 72 -57 119
-164 178 -400 5 -21 14 -55 20 -75 5 -21 12 -49 13 -63 2 -14 6 -32 9 -40 4
-8 9 -26 12 -40 2 -14 21 -81 40 -150 19 -69 37 -134 39 -145 10 -48 59 -203
88 -278 38 -101 89 -177 118 -177 6 0 10 -4 10 -8 0 -8 41 -24 100 -40 8 -2
40 -5 70 -6 190 -9 325 107 314 269 -3 45 -10 90 -14 90 -1 0 -3 12 -5 28 -2
15 -11 53 -21 85 -10 31 -18 62 -20 68 -2 11 -40 124 -51 154 -3 8 -7 20 -8
25 -4 14 -45 126 -55 150 -12 26 -72 205 -75 225 -2 8 -4 16 -5 18 -2 1 -3 5
-4 10 -1 4 -6 18 -11 32 -4 14 -9 36 -11 50 -1 14 -3 25 -4 25 -9 0 -20 194
-11 210 3 6 7 16 8 23 7 31 10 39 26 70 10 17 23 32 29 32 6 0 9 3 5 6 -7 7
46 54 62 54 6 0 11 3 11 8 0 8 61 38 73 34 4 -1 7 3 7 10 0 6 3 8 7 5 3 -4 12
-2 20 4 7 6 13 9 13 5 0 -3 12 0 28 6 33 13 250 19 258 7 3 -5 16 -9 29 -9 37
0 205 -76 205 -92 0 -5 6 -8 13 -8 33 0 217 -210 217 -248 0 -6 5 -12 11 -12
5 0 8 -4 4 -9 -3 -5 -1 -12 4 -15 13 -8 51 -120 54 -158 1 -10 4 -18 7 -18 4
0 7 -6 7 -12 0 -7 4 -29 8 -48 8 -38 11 -53 20 -115 10 -59 6 -290 -5 -290 -1
0 -3 -14 -5 -31 -9 -87 -86 -272 -156 -374 -38 -55 -85 -117 -145 -190 -57
-69 -124 -166 -124 -179 0 -6 -4 -11 -8 -11 -5 0 -9 -6 -9 -12 -1 -7 -5 -33
-10 -58 -12 -59 -7 -75 25 -91 27 -13 149 -21 167 -10 6 3 16 6 23 7 29 5 140
68 177 100 77 69 100 91 146 142 57 62 175 223 171 234 -1 4 2 8 7 8 5 0 14
14 21 30 7 17 15 30 19 30 4 0 15 20 25 45 11 25 22 45 26 45 4 0 12 18 19 40
6 22 16 40 21 40 6 0 9 3 8 8 -3 9 32 103 45 120 5 6 7 12 3 12 -4 0 0 13 9
30 8 16 15 32 15 35 0 3 0 6 1 8 1 5 8 33 13 55 3 13 8 33 12 45 4 12 9 29 10
37 1 8 5 26 8 40 4 14 9 43 11 65 3 22 8 58 12 80 8 56 7 312 -2 360 -4 22 -9
54 -10 70 -1 17 -4 37 -7 45 -3 8 -16 56 -28 105 -25 99 -78 234 -122 308 -15
26 -28 50 -28 52 0 8 -64 100 -72 103 -4 2 -8 9 -8 16 0 6 -8 19 -17 27 -10 9
-32 34 -50 55 -61 76 -145 152 -214 197 -16 11 -29 23 -29 28 0 5 -9 9 -20 9
-11 0 -20 4 -20 9 0 11 -175 97 -236 116 -83 26 -143 36 -291 49 -18 2 -34 2
-35 1z"/>
<path d="M14250 15619 c-93 -11 -123 -16 -140 -22 -8 -3 -42 -14 -75 -23 -135
-37 -330 -146 -391 -217 -63 -73 -73 -87 -118 -156 -26 -39 -51 -71 -55 -71
-5 0 -8 -8 -6 -17 2 -10 4 -22 4 -26 2 -20 51 3 95 47 64 61 160 105 276 124
55 10 261 6 268 -4 4 -5 24 -10 46 -11 21 -2 44 -7 51 -13 6 -5 20 -11 31 -14
40 -9 64 -19 64 -27 0 -5 5 -9 11 -9 11 0 92 -53 119 -77 66 -60 80 -74 80
-81 0 -4 9 -14 20 -22 11 -8 20 -18 20 -22 0 -4 11 -24 25 -44 22 -32 61 -109
85 -169 24 -58 59 -196 75 -300 15 -93 9 -390 -10 -485 -3 -14 -10 -50 -16
-80 -11 -57 -15 -78 -25 -120 -9 -42 -12 -55 -14 -57 -3 -3 -3 -5 -14 -48 -16
-59 -67 -220 -77 -240 -6 -12 -11 -27 -12 -35 -2 -8 -6 -21 -10 -27 -5 -7 -5
-13 0 -13 4 0 3 -4 -2 -8 -6 -4 -24 -41 -40 -82 -36 -93 -198 -414 -219 -436
-9 -8 -16 -21 -16 -29 0 -7 -3 -15 -7 -17 -5 -1 -26 -29 -48 -62 -22 -32 -57
-78 -79 -101 l-38 -43 -42 14 c-22 8 -48 17 -56 21 -8 3 -18 5 -22 5 -5 -1 -8
2 -8 8 0 5 -6 10 -13 10 -7 0 -39 14 -72 32 -33 17 -78 40 -100 51 -22 11 -42
22 -45 26 -3 3 -26 17 -52 30 -27 13 -48 28 -48 33 0 4 -4 8 -10 8 -21 0 -310
207 -310 222 0 4 -6 8 -12 8 -7 0 -32 19 -55 41 -24 22 -43 38 -43 35 0 -8
-232 226 -267 269 -17 22 -43 54 -57 71 -14 18 -26 37 -26 43 0 6 -3 11 -7 11
-8 0 -44 58 -40 63 1 2 -6 11 -15 21 -10 10 -18 24 -18 32 0 8 -5 14 -12 14
-6 0 -9 3 -6 6 4 3 -4 30 -17 59 -13 30 -26 64 -28 77 -2 13 -7 30 -11 39 -8
19 -15 157 -8 164 3 3 6 15 8 28 3 37 15 81 22 87 4 3 8 12 10 20 10 48 144
220 172 220 5 0 10 5 10 12 0 6 3 8 7 5 3 -4 13 -1 22 7 16 14 74 33 136 44
62 11 223 5 333 -14 23 -3 42 -3 42 1 0 30 -181 155 -224 155 -9 0 -16 5 -16
11 0 5 -4 8 -8 5 -4 -2 -36 1 -70 9 -60 12 -242 14 -287 2 -121 -31 -196 -57
-207 -72 -4 -5 -8 -7 -8 -3 0 7 -96 -51 -128 -76 -97 -79 -191 -233 -194 -316
0 -8 -4 -19 -8 -25 -10 -16 -4 -203 10 -270 6 -33 18 -73 25 -90 15 -35 27
-69 25 -73 0 -1 8 -14 19 -29 12 -14 18 -29 15 -34 -3 -5 -2 -9 3 -9 4 0 21
-20 36 -45 16 -25 32 -45 37 -45 4 0 10 -8 14 -17 7 -21 25 -50 48 -76 9 -11
29 -44 43 -73 15 -30 30 -54 33 -54 4 0 23 -13 42 -29 134 -111 283 -224 349
-266 9 -6 42 -27 74 -48 31 -20 62 -37 67 -37 6 0 10 -3 10 -7 0 -5 10 -13 23
-19 64 -31 134 -69 150 -82 9 -8 17 -12 17 -9 0 3 42 -15 93 -41 50 -25 94
-47 97 -48 3 0 22 -8 42 -17 21 -10 42 -17 48 -17 5 0 10 -4 10 -8 0 -4 36
-21 80 -37 44 -16 80 -33 80 -39 0 -5 3 -7 6 -3 3 3 26 -3 50 -13 24 -11 44
-17 44 -13 0 3 6 1 13 -5 6 -5 53 -22 102 -37 50 -14 95 -28 102 -30 7 -2 34
18 60 44 64 65 114 121 106 121 -3 0 3 8 13 18 11 9 26 27 34 38 39 56 105
139 112 142 4 2 8 9 8 15 0 7 11 24 25 39 14 15 25 31 25 35 0 4 9 19 20 33
52 66 90 121 90 130 0 6 3 10 8 10 4 0 12 9 17 19 13 25 158 254 165 261 3 3
16 28 30 55 13 28 30 54 37 58 8 5 11 13 7 18 -3 6 1 18 9 27 9 9 16 19 15 22
0 3 16 40 36 83 20 42 36 82 36 87 0 6 5 10 10 10 6 0 10 10 10 23 0 13 4 27
8 33 11 11 76 191 97 265 17 61 19 69 36 144 6 28 16 55 21 62 6 7 5 14 -2 18
-6 3 -7 12 -3 18 4 7 9 23 11 37 2 14 7 52 11 85 11 78 10 374 -1 381 -4 3 -6
9 -4 13 3 4 1 25 -4 47 -5 21 -11 52 -14 67 -16 88 -92 270 -132 318 -8 8 -14
19 -14 22 0 8 -23 37 -75 95 -56 61 -59 65 -91 87 -15 11 -33 26 -40 33 -7 6
-17 12 -22 12 -5 0 -20 8 -33 18 -98 74 -327 120 -499 101z"/>
<path d="M12558 15394 c-3 -2 -25 -7 -49 -10 -137 -17 -291 -72 -388 -139 -56
-39 -191 -174 -191 -191 0 -4 -6 -15 -14 -23 -13 -14 -69 -118 -71 -131 0 -3
-9 -30 -20 -60 -10 -30 -20 -59 -20 -65 -1 -5 -3 -12 -4 -15 -9 -19 -24 -156
-23 -215 2 -114 13 -199 42 -305 7 -25 13 -49 15 -55 3 -12 12 -37 36 -94 11
-24 19 -50 19 -57 0 -8 4 -14 8 -14 6 0 25 -38 30 -63 1 -4 6 -13 12 -20 18
-20 110 -180 110 -189 0 -5 5 -6 10 -3 6 3 10 0 10 -8 0 -16 141 -188 196
-237 47 -43 104 -84 104 -75 0 4 -13 26 -30 50 -16 24 -30 48 -30 54 0 6 -4
11 -9 11 -5 0 -11 8 -15 18 -5 17 -12 28 -49 84 -10 16 -15 28 -10 28 4 0 3 4
-2 8 -17 12 -110 218 -119 262 -2 8 -6 22 -9 30 -12 29 -38 128 -42 161 -3 19
-8 52 -11 74 -9 56 -9 221 -1 275 8 54 30 134 48 175 7 17 13 32 13 35 2 13
61 106 82 129 12 14 31 36 42 49 11 12 22 22 25 22 3 0 18 11 33 25 28 26 153
91 168 87 4 -2 14 2 20 8 7 5 16 7 19 4 3 -3 12 -2 19 2 48 30 306 9 356 -29
6 -5 12 -7 12 -3 0 4 13 0 29 -8 16 -9 31 -12 35 -9 3 4 6 2 6 -4 0 -6 12 -14
27 -18 15 -3 30 -10 33 -14 8 -10 59 -41 66 -40 4 0 10 -3 13 -8 3 -4 22 -20
41 -34 19 -15 51 -40 70 -57 19 -17 35 -30 36 -29 13 14 134 225 134 233 0 7
-10 18 -22 27 -13 8 -54 45 -93 81 -101 97 -116 110 -155 136 -19 13 -37 27
-40 30 -11 13 -138 69 -190 84 -79 22 -105 26 -200 32 -47 2 -90 6 -97 9 -6 2
-13 2 -15 -1z"/>
<path d="M10467 14674 c-1 -1 -22 -5 -47 -8 -79 -11 -153 -28 -212 -51 -21 -8
-38 -11 -38 -7 0 4 -4 3 -8 -3 -4 -5 -38 -26 -75 -45 -37 -19 -77 -43 -87 -52
-11 -10 -22 -18 -26 -18 -6 0 -113 -109 -140 -142 -6 -8 -22 -33 -35 -56 -28
-49 -39 -49 -116 -2 -135 82 -183 108 -238 125 -83 26 -77 25 -200 28 -123 3
-234 -16 -348 -59 -67 -26 -177 -80 -187 -93 -3 -3 -23 -19 -45 -36 -22 -16
-52 -44 -68 -62 -35 -39 -49 -41 -75 -8 -11 13 -22 21 -26 18 -3 -3 -6 0 -6 9
0 21 -38 35 -90 32 -60 -3 -159 -12 -190 -18 -45 -8 -225 -34 -240 -34 -8 0
-41 -7 -72 -15 -32 -8 -58 -12 -58 -9 0 2 -6 0 -12 -5 -7 -6 -30 -16 -50 -22
-54 -18 -88 -47 -83 -73 4 -21 32 -58 44 -56 3 0 9 -1 14 -2 4 -1 10 -3 15 -4
4 -1 17 -7 28 -14 12 -6 24 -8 28 -5 3 3 6 0 6 -7 0 -7 3 -11 6 -8 9 10 102
-46 117 -69 4 -7 13 -18 20 -25 36 -38 70 -146 107 -338 33 -169 77 -364 150
-665 23 -93 43 -181 43 -195 1 -14 5 -27 9 -30 4 -3 9 -25 10 -48 2 -23 7 -42
12 -42 4 0 6 -6 3 -14 -3 -8 -3 -17 1 -20 5 -6 7 -14 17 -76 2 -14 4 -26 5
-27 3 -4 4 -8 13 -53 34 -159 49 -213 79 -276 29 -61 110 -154 135 -154 7 0
13 -5 13 -11 0 -5 5 -7 10 -4 6 3 10 2 10 -2 0 -17 160 -23 196 -8 10 4 25 9
32 11 18 3 82 52 110 83 57 63 80 161 58 241 -4 14 -9 34 -11 45 -3 11 -18 76
-35 145 -18 69 -32 133 -33 143 -1 9 -4 17 -7 17 -3 0 -7 10 -8 23 -5 36 -9
62 -11 62 -2 0 -4 11 -7 25 -2 14 -7 36 -11 50 -3 14 -7 28 -7 32 -1 3 -4 9
-8 13 -4 4 -4 13 -2 20 3 7 0 16 -5 20 -6 3 -9 11 -5 16 3 5 0 16 -6 24 -7 8
-10 15 -7 15 3 0 1 17 -4 38 -6 20 -11 46 -13 57 -2 11 -18 79 -36 150 -30
121 -38 189 -29 258 2 15 6 27 10 27 4 0 9 10 12 23 9 35 81 102 140 131 68
34 94 39 187 39 73 0 97 -3 133 -16 22 -9 40 -14 50 -15 4 -1 15 -8 23 -16 8
-9 23 -21 33 -28 39 -28 84 -113 107 -203 1 -5 12 -44 23 -84 11 -41 18 -79
15 -83 -3 -4 0 -8 6 -8 7 0 10 -6 7 -12 -2 -7 0 -21 5 -31 5 -11 12 -32 14
-48 7 -48 13 -81 28 -149 8 -36 17 -78 19 -95 11 -59 47 -241 56 -279 5 -22 9
-42 9 -45 -1 -3 1 -13 4 -21 3 -8 11 -35 18 -60 23 -82 78 -200 97 -207 7 -3
13 -10 13 -17 0 -6 21 -24 46 -39 73 -44 141 -50 279 -23 6 1 20 8 33 14 12 7
22 10 22 7 0 -4 18 8 40 25 40 32 85 102 73 114 -4 3 -2 6 4 6 6 0 8 32 7 83
-3 71 -9 122 -14 122 -1 0 -4 11 -7 25 -7 39 -11 55 -13 55 -1 0 -3 8 -6 18
-2 9 -6 25 -8 35 -3 9 -5 18 -6 20 -3 2 -2 1 -15 57 -4 22 -8 43 -7 48 1 4 -3
7 -9 7 -5 0 -8 4 -5 8 3 5 -1 30 -9 55 -8 26 -12 47 -9 47 3 0 0 8 -5 18 -5 9
-11 31 -14 47 -3 17 -8 40 -11 53 -3 12 -8 31 -11 42 -8 31 -15 62 -21 95 -9
44 -12 60 -14 60 -2 0 -7 25 -14 70 -3 17 -7 41 -10 55 -10 42 -29 193 -28
225 2 75 86 188 171 232 20 10 38 21 39 26 2 4 11 7 21 7 9 0 22 5 29 12 7 7
12 9 12 5 0 -3 11 -2 24 3 56 21 174 29 256 17 19 -3 35 -6 35 -7 0 -1 11 -3
24 -6 14 -2 30 -9 38 -15 7 -6 13 -8 13 -5 0 7 98 -42 110 -54 3 -3 25 -21 50
-40 25 -19 50 -41 56 -50 7 -8 26 -31 43 -50 17 -19 31 -40 31 -47 0 -6 4 -13
9 -15 20 -7 122 -258 104 -258 -3 0 -1 -6 5 -12 23 -29 36 -141 35 -308 0
-129 -2 -160 -16 -220 -2 -8 -7 -32 -12 -53 -4 -20 -11 -40 -16 -43 -5 -3 -7
-10 -4 -15 4 -5 1 -9 -5 -9 -6 0 -9 -4 -6 -9 7 -10 -90 -202 -107 -213 -7 -4
-7 -8 -2 -8 6 0 2 -5 -7 -11 -10 -5 -18 -15 -18 -20 0 -9 -43 -67 -90 -120
-65 -74 -120 -136 -146 -164 -89 -96 -121 -190 -80 -242 24 -32 36 -37 89 -35
51 2 110 18 175 48 28 13 54 23 55 21 2 -1 10 5 19 13 9 8 35 31 59 50 126
100 354 354 390 434 7 14 15 26 18 26 4 0 15 17 26 38 11 20 22 39 25 42 18
18 118 251 127 294 2 11 8 25 14 33 6 7 9 13 5 13 -3 0 -1 11 4 26 6 14 12 39
15 57 3 18 10 49 16 69 12 48 22 137 23 215 1 35 3 63 6 63 3 0 5 19 3 43 -1
23 -2 42 -3 42 -1 0 -3 29 -5 65 -2 36 -4 65 -5 65 -2 0 -12 81 -14 113 0 12
-4 22 -8 22 -3 0 -5 8 -3 18 1 9 -1 22 -6 28 -5 6 -10 25 -11 43 -1 18 -6 35
-10 37 -4 3 -8 16 -8 29 0 13 -5 27 -11 30 -6 4 -8 13 -5 21 3 8 1 14 -4 14
-6 0 -10 8 -10 18 0 10 -3 22 -7 26 -5 4 -8 11 -9 14 -2 16 -67 153 -97 207
-38 66 -116 171 -166 224 -32 33 -55 63 -53 66 3 3 0 5 -6 5 -6 0 -30 18 -52
40 -22 22 -43 40 -47 40 -3 0 -26 15 -52 33 -25 19 -71 46 -101 62 -30 15 -67
34 -82 42 -16 8 -28 11 -28 7 0 -3 -7 -1 -15 6 -8 7 -15 9 -15 6 0 -4 -8 -2
-19 3 -32 17 -152 33 -259 35 -57 0 -104 0 -105 0z"/>
<path d="M4804 14015 c2 -42 8 -81 14 -87 7 -7 12 -20 12 -29 0 -9 7 -19 15
-23 8 -3 15 -10 15 -15 0 -5 15 -27 34 -47 25 -27 32 -42 26 -54 -14 -26 -62
-70 -76 -70 -8 0 -14 -4 -14 -9 0 -5 -30 -21 -67 -37 -71 -29 -143 -79 -143
-98 1 -29 119 -104 171 -108 17 -1 32 -5 34 -9 2 -3 37 -5 77 -3 80 3 104 7
114 16 3 4 13 4 22 1 10 -4 14 -2 10 2 -5 5 10 16 31 26 78 34 178 163 197
251 17 81 20 108 15 116 -10 15 -62 38 -116 51 -27 7 -63 18 -80 24 -16 6 -35
12 -41 13 -23 3 -84 36 -84 45 0 5 -5 9 -12 9 -6 0 -28 17 -47 38 -41 43 -80
72 -97 72 -8 0 -11 -24 -10 -75z"/>
<path d="M21350 13143 c-25 -8 -52 -16 -60 -18 -8 -2 -35 -10 -60 -18 -25 -8
-72 -15 -105 -16 -84 -4 -157 -9 -177 -13 -30 -7 -58 -40 -58 -68 0 -43 23
-54 114 -56 44 -1 85 -2 89 -3 16 -2 56 -53 51 -66 -3 -7 -1 -16 5 -19 6 -4 8
-13 5 -21 -3 -8 -2 -20 2 -27 5 -7 9 -17 11 -23 1 -5 4 -20 7 -32 23 -90 28
-116 29 -130 0 -7 3 -13 6 -13 3 0 7 -11 8 -25 4 -46 6 -55 15 -55 5 0 6 -5 3
-10 -4 -6 -3 -19 1 -28 9 -22 12 -30 19 -67 8 -39 31 -134 35 -145 1 -3 3 -9
5 -15 1 -5 3 -12 4 -15 2 -3 4 -14 6 -25 2 -11 6 -31 10 -45 3 -14 8 -32 10
-40 2 -8 4 -15 5 -15 1 0 3 -9 6 -20 2 -11 6 -34 10 -52 5 -29 4 -31 -15 -26
-12 3 -21 9 -21 14 0 5 -6 9 -14 9 -8 0 -16 3 -18 8 -5 12 -116 92 -128 92 -6
0 -9 4 -6 8 3 5 -7 15 -22 23 -15 8 -34 19 -42 26 -66 52 -161 123 -165 123
-3 0 -13 8 -24 18 -10 9 -41 33 -69 52 -28 19 -51 38 -52 43 0 4 -4 7 -10 7
-9 0 -33 18 -64 46 -6 5 -19 13 -28 17 -10 3 -18 11 -18 17 0 5 -5 10 -11 10
-12 0 -92 59 -97 72 -2 5 -8 8 -14 8 -5 0 -15 6 -22 13 -8 6 -24 19 -36 27
-20 14 -49 36 -77 60 -7 5 -17 10 -23 10 -5 0 -10 5 -10 10 0 6 -4 10 -10 10
-9 0 -35 19 -65 48 -8 6 -16 12 -20 12 -5 0 -16 8 -48 36 -7 5 -37 23 -68 38
-57 28 -85 29 -146 5 -15 -6 -29 -10 -30 -10 -2 1 -4 1 -5 0 -5 -2 -64 -7
-110 -10 -25 -1 -56 -10 -68 -19 -29 -22 -33 -63 -9 -89 16 -17 29 -19 91 -17
61 3 79 0 105 -18 18 -12 33 -27 34 -33 2 -15 6 -32 9 -35 1 -2 3 -10 5 -18 4
-16 12 -48 20 -80 3 -11 7 -29 10 -41 2 -11 6 -28 9 -37 3 -9 8 -30 11 -47 9
-47 10 -49 18 -62 5 -7 6 -17 2 -22 -3 -5 -1 -12 4 -16 5 -3 8 -14 6 -25 -2
-11 -1 -20 3 -20 4 0 8 -8 9 -18 1 -10 9 -47 18 -83 23 -87 26 -101 30 -124 2
-11 4 -20 5 -20 2 0 4 -9 6 -20 1 -11 12 -52 22 -92 11 -40 17 -74 14 -77 -3
-4 1 -6 8 -6 7 0 11 -3 8 -6 -4 -3 -2 -20 3 -37 5 -18 12 -45 15 -62 8 -43 12
-60 14 -62 2 -2 4 -12 5 -23 1 -11 4 -22 5 -25 1 -3 4 -9 5 -15 1 -5 3 -11 5
-12 2 -3 6 -24 11 -53 6 -37 -10 -71 -38 -84 -28 -13 -112 -41 -124 -41 -4 0
-15 29 -24 65 -21 75 -51 109 -100 111 -25 1 -40 -6 -58 -26 -21 -23 -24 -35
-21 -82 3 -50 1 -57 -25 -83 -16 -15 -34 -24 -39 -21 -6 4 -13 2 -17 -3 -3 -5
-13 -9 -23 -9 -9 1 -35 -3 -57 -7 -22 -4 -49 -9 -60 -10 -11 -1 -36 -5 -55
-10 -19 -4 -46 -9 -60 -11 -14 -1 -25 -3 -25 -4 0 -3 -37 -9 -80 -14 -22 -3
-40 -6 -40 -7 0 -6 -89 -13 -131 -10 -18 1 -48 44 -49 71 0 3 -3 10 -7 16 -4
6 -6 21 -3 33 2 11 0 21 -4 21 -4 0 -8 6 -9 13 0 6 -3 23 -7 37 -4 14 -8 34
-10 45 -2 11 -4 22 -6 25 -1 3 -3 10 -4 15 -2 6 -4 12 -5 15 -3 8 -11 44 -15
65 -2 11 -4 20 -5 20 -2 0 -4 9 -6 20 -6 37 -9 50 -18 63 -4 7 -5 16 -2 19 3
3 1 12 -5 20 -6 7 -9 13 -6 13 3 0 1 15 -5 33 -5 17 -11 41 -13 52 -1 11 -10
47 -19 80 -15 57 -14 60 5 78 10 10 23 15 28 12 5 -3 12 -1 16 4 3 5 13 10 23
9 17 0 62 7 112 17 14 2 36 7 50 10 14 2 41 7 60 11 19 3 49 8 65 11 95 16
118 9 135 -41 9 -29 50 -80 50 -63 0 4 11 2 24 -3 17 -6 30 -4 47 8 48 32 50
55 14 131 -29 59 -34 85 -47 218 -2 21 -31 41 -63 46 -53 8 -96 -28 -88 -72 2
-13 -1 -37 -7 -52 -11 -27 -28 -33 -125 -45 -5 0 -21 -4 -35 -7 -14 -4 -43 -9
-65 -12 -92 -13 -150 -23 -150 -25 0 -1 -17 -3 -37 -4 -21 -2 -38 1 -38 6 0 5
-4 7 -8 4 -5 -3 -16 8 -26 25 -9 16 -15 29 -12 29 3 0 -2 17 -11 38 -8 20 -15
39 -14 42 2 10 -12 76 -20 91 -25 49 -16 161 12 144 5 -4 9 -2 9 2 0 5 8 9 18
10 18 1 61 8 102 18 14 3 41 7 60 10 19 3 47 7 63 10 15 3 39 7 55 10 49 9 97
17 119 20 16 1 39 -16 80 -60 52 -54 63 -61 94 -60 68 1 78 37 43 143 -19 58
-39 94 -61 113 -22 17 -91 22 -110 6 -9 -6 -13 -6 -13 2 0 7 -5 9 -10 6 -11
-7 -50 -16 -90 -20 -14 -2 -25 -4 -25 -5 0 -2 -9 -4 -20 -6 -11 -1 -38 -6 -60
-9 -22 -4 -51 -8 -65 -10 -14 -2 -25 -4 -25 -5 0 -3 -100 -21 -145 -26 -14 -1
-25 -3 -25 -4 0 -2 -22 -6 -70 -14 -22 -3 -75 -13 -118 -22 -43 -9 -81 -13
-84 -10 -4 3 -11 2 -18 -4 -6 -5 -33 -11 -60 -14 -28 -3 -50 -6 -50 -7 0 0
-13 -3 -28 -5 -30 -3 -100 -35 -96 -44 1 -3 -3 -15 -10 -28 -10 -18 -9 -23 4
-28 8 -3 13 -10 10 -14 -4 -7 1 -11 25 -19 29 -10 81 -17 85 -11 2 4 25 7 50
7 38 0 49 -4 65 -27 18 -25 47 -112 55 -165 2 -11 4 -21 5 -22 2 -2 3 -6 5
-10 1 -5 5 -15 9 -24 4 -9 6 -20 5 -25 -1 -5 0 -11 1 -14 1 -3 3 -12 5 -20 2
-8 13 -50 23 -92 11 -43 17 -78 14 -78 -2 0 1 -7 8 -15 7 -9 10 -18 7 -22 -3
-3 0 -21 9 -41 8 -19 12 -37 10 -40 -3 -2 -1 -15 4 -28 6 -14 12 -35 14 -47 3
-12 15 -60 26 -107 23 -92 28 -111 34 -137 2 -10 14 -56 26 -103 12 -47 24
-96 27 -109 2 -14 6 -28 9 -33 3 -5 7 -29 10 -55 3 -38 0 -50 -18 -65 -11 -10
-24 -18 -27 -19 -3 -1 -18 -2 -33 -3 -93 -9 -138 -85 -70 -120 27 -14 138 -15
180 -2 11 4 34 8 52 11 17 2 46 7 63 11 18 4 43 8 57 10 14 1 36 5 50 8 13 3
40 8 60 11 20 3 47 8 60 11 14 3 41 7 60 9 19 2 36 4 38 5 4 4 15 6 67 15 66
10 75 12 107 20 15 4 44 8 65 10 21 2 38 4 38 5 0 2 36 10 75 15 42 7 76 12
113 20 15 3 39 7 55 10 67 11 89 18 120 37 23 14 37 17 44 10 6 -6 21 -7 39
-2 16 5 29 6 29 3 0 -3 6 -1 13 4 6 6 20 9 30 8 9 -2 17 1 17 5 0 10 97 33
150 36 19 1 35 3 35 4 0 1 27 3 60 5 105 6 161 24 163 53 1 33 -21 72 -44 78
-37 9 -95 10 -101 2 -2 -5 -10 -5 -16 -1 -6 4 -22 8 -36 9 -26 3 -60 32 -65
55 -2 8 -6 21 -9 29 -7 20 -49 199 -53 225 -1 11 -3 21 -4 23 -2 1 -3 5 -5 10
-1 4 -5 15 -10 25 -4 10 -5 21 -1 24 3 3 2 11 -3 17 -5 6 -12 28 -15 50 -4 21
-8 41 -11 45 -2 4 -6 18 -9 32 -8 39 -13 58 -45 184 -16 66 -32 132 -35 147
-2 15 -7 31 -10 36 -3 5 -7 19 -10 33 -2 13 -8 39 -12 57 -3 17 -3 32 1 32 4
0 48 -31 99 -68 50 -37 107 -79 126 -92 19 -13 37 -28 38 -32 2 -4 10 -8 17
-8 7 0 15 -4 17 -8 3 -8 133 -106 203 -154 22 -15 50 -36 62 -47 12 -12 27
-21 33 -21 6 0 13 -7 16 -15 4 -8 12 -15 18 -15 7 0 21 -8 32 -17 44 -39 103
-83 113 -83 5 0 11 -3 13 -8 2 -4 37 -32 78 -62 41 -30 77 -58 78 -62 2 -5 8
-8 13 -8 5 0 20 -10 35 -22 14 -13 26 -21 27 -18 1 2 15 -8 31 -22 50 -45 64
-56 88 -69 13 -6 30 -18 38 -26 8 -8 44 -35 80 -61 36 -26 67 -50 68 -54 2 -5
9 -8 17 -8 7 0 18 -7 25 -15 7 -8 22 -13 34 -11 11 3 27 5 34 5 19 1 31 42 20
71 -5 14 -24 48 -42 75 -43 65 -104 251 -99 303 0 6 -4 12 -9 12 -6 0 -8 8 -5
19 2 10 0 26 -5 35 -5 9 -12 29 -15 44 -8 41 -11 57 -13 57 -1 0 -3 8 -5 19
-3 15 -12 54 -30 126 -1 3 -5 16 -8 30 -16 59 -136 558 -142 585 -4 25 -1 36
20 55 14 13 25 21 25 17 0 -3 16 1 35 9 20 8 40 12 44 9 5 -2 20 7 35 22 18
18 25 32 20 47 -8 27 -44 58 -60 52 -7 -3 -14 -1 -16 3 -2 4 -23 1 -48 -6z"/>
<path d="M18340 12617 c-3 -3 -21 -8 -40 -11 -49 -9 -53 -11 -67 -19 -7 -5
-17 -5 -23 -2 -5 3 -10 2 -10 -3 0 -5 -6 -9 -12 -9 -7 0 -29 -4 -48 -7 -19 -4
-64 -9 -100 -11 -111 -7 -152 -15 -179 -35 -26 -18 -40 -60 -20 -60 5 0 9 -6
9 -14 0 -8 10 -18 23 -22 24 -8 29 -9 97 -19 49 -7 80 -29 80 -55 0 -9 5 -21
12 -28 7 -7 9 -12 6 -12 -3 0 5 -39 18 -87 13 -49 27 -107 29 -130 6 -45 10
-43 -85 -58 -19 -4 -53 -10 -75 -14 -22 -5 -47 -9 -55 -9 -17 -1 -63 -9 -100
-19 -14 -3 -34 -7 -45 -8 -11 -2 -36 -6 -55 -10 -19 -3 -48 -8 -65 -11 -16 -2
-41 -6 -55 -9 -32 -7 -89 -17 -115 -20 -11 -1 -21 -4 -22 -5 -2 -1 -6 -3 -10
-5 -25 -7 -50 -21 -60 -34 -15 -18 -8 -57 12 -78 15 -15 105 -25 105 -12 0 4
8 7 18 7 9 0 37 3 62 7 25 4 54 9 65 11 11 1 31 5 45 9 14 3 39 7 55 10 80 12
102 15 125 20 14 3 41 8 60 11 19 4 40 7 45 8 32 8 114 20 140 21 55 2 80 -23
89 -94 2 -14 6 -33 10 -42 4 -9 8 -27 10 -40 2 -13 6 -31 9 -39 5 -13 62 -242
72 -290 2 -8 13 -52 24 -97 12 -45 21 -95 21 -111 0 -29 -31 -68 -43 -55 -4 3
-7 1 -7 -5 0 -6 -13 -13 -29 -17 -58 -13 -76 -96 -23 -111 50 -14 57 -14 112
-2 30 6 58 11 63 10 4 -1 7 3 7 10 0 6 3 9 6 5 3 -3 18 -1 32 4 32 12 96 19
281 31 7 1 28 16 47 33 25 24 32 38 27 51 -8 23 -35 44 -45 38 -5 -3 -8 -1 -8
3 0 5 -15 8 -32 8 -18 -1 -37 1 -42 3 -5 3 -22 6 -38 8 -25 1 -60 31 -64 54 0
3 -4 12 -7 20 -4 8 -8 29 -11 45 -2 17 -5 30 -6 30 -2 0 -4 12 -13 55 -3 14
-8 32 -11 40 -3 8 -8 26 -10 40 -9 45 -15 71 -22 93 -4 12 -9 29 -10 37 -1 8
-5 25 -8 38 -3 12 -8 30 -10 40 -2 9 -9 37 -16 62 -7 25 -14 54 -15 65 -1 11
-3 20 -4 20 -2 0 -5 11 -8 25 -6 33 -9 42 -16 60 -4 8 -8 29 -11 45 -2 17 -5
30 -6 30 -1 0 -4 14 -6 30 -3 17 -8 37 -11 45 -7 17 -11 34 -16 67 -2 13 -6
26 -10 29 -4 4 -7 18 -7 31 0 14 -4 33 -10 43 -5 10 -11 32 -12 49 -1 17 -6
31 -10 31 -4 0 -5 9 -3 20 2 11 0 22 -4 25 -9 5 -8 53 3 76 4 9 28 25 54 35
26 9 52 25 59 33 13 18 11 67 -4 82 -11 11 -75 23 -83 16z"/>
<path d="M17240 12418 c-41 -10 -84 -21 -95 -23 -11 -2 -20 -4 -20 -5 0 -2
-33 -9 -70 -15 -25 -4 -144 -14 -207 -18 -10 -1 -18 -5 -18 -10 0 -4 -4 -6 -9
-2 -5 3 -18 -6 -29 -20 -38 -47 -3 -91 79 -99 64 -6 87 -13 104 -30 20 -19 37
-66 31 -83 -3 -7 -1 -13 4 -13 5 0 12 -21 16 -47 3 -27 11 -54 16 -60 6 -7 8
-19 5 -28 -4 -8 -1 -17 4 -21 6 -3 9 -15 6 -25 -3 -11 -1 -19 4 -19 5 0 9 -10
9 -22 0 -12 5 -35 10 -52 9 -25 128 -504 145 -581 9 -38 14 -60 33 -135 11
-41 19 -90 18 -109 -1 -32 -6 -37 -61 -66 -49 -25 -61 -35 -63 -59 -2 -18 4
-36 17 -50 24 -25 76 -27 151 -5 25 7 47 13 50 13 3 1 10 4 15 7 18 11 89 22
165 24 41 2 82 6 91 9 9 4 20 6 25 5 32 -8 93 44 88 75 -5 32 -28 46 -95 57
-35 6 -70 12 -78 13 -20 4 -62 47 -55 57 3 6 1 15 -4 22 -5 7 -10 19 -10 27 0
8 -6 33 -12 55 -6 22 -12 49 -14 60 -2 11 -6 27 -10 35 -3 8 -8 26 -10 40 -3
14 -10 43 -16 65 -17 65 -32 133 -30 137 1 2 -4 17 -10 33 -12 30 -17 49 -26
95 -3 14 -8 34 -11 45 -4 11 -8 27 -9 35 -4 22 -12 55 -14 55 -1 0 -3 9 -5 20
-5 27 -13 60 -15 60 -1 0 -3 9 -5 20 -2 11 -6 31 -10 45 -3 14 -8 32 -10 40
-2 8 -4 15 -5 15 -1 0 -3 11 -5 25 -6 32 -13 65 -15 65 -1 0 -4 11 -6 25 -3
14 -10 43 -16 65 -6 22 -10 51 -9 65 3 29 28 60 48 60 7 0 13 5 13 11 0 5 4 8
9 5 5 -3 23 7 40 23 26 24 30 33 22 53 -4 12 -21 30 -37 39 -27 16 -34 16
-104 -3z"/>
<path d="M16088 12255 c-3 -3 -24 -7 -117 -20 -23 -3 -54 -10 -67 -15 -13 -5
-24 -8 -24 -6 0 2 -37 -9 -82 -25 -46 -16 -87 -31 -93 -32 -21 -6 -101 -50
-117 -65 -10 -8 -18 -12 -18 -8 0 4 -6 1 -14 -6 -7 -7 -30 -26 -52 -43 -109
-86 -216 -236 -241 -339 -4 -17 -8 -34 -9 -38 -1 -5 -3 -9 -4 -10 -15 -16 -20
-268 -6 -333 19 -93 88 -242 146 -318 28 -36 105 -121 124 -136 11 -9 30 -26
43 -38 13 -12 23 -19 23 -15 0 4 4 2 8 -3 11 -15 81 -59 132 -82 50 -22 112
-48 120 -48 3 0 11 -4 18 -8 6 -5 12 -6 12 -3 0 3 12 1 28 -5 27 -11 87 -21
130 -22 12 -1 22 -4 22 -7 0 -9 212 -6 227 3 6 4 14 3 18 -3 4 -6 11 -8 16 -4
9 5 19 7 89 18 19 3 50 10 68 15 17 5 32 8 32 6 0 -2 24 6 53 17 28 10 57 20
62 22 14 3 91 41 141 69 127 71 276 228 290 304 6 35 -21 63 -61 63 -26 0 -44
-12 -101 -72 -103 -107 -154 -147 -240 -191 -84 -43 -190 -88 -219 -93 -11 -2
-36 -7 -55 -11 -42 -9 -243 -8 -285 1 -64 14 -115 31 -115 38 0 4 -3 8 -7 7
-17 -2 -53 14 -53 24 0 6 -3 7 -6 4 -6 -6 -39 14 -88 53 -33 26 -118 110 -111
110 3 0 -6 12 -20 28 -33 34 -87 148 -115 243 -13 41 -25 81 -28 89 -17 53
-19 253 -4 315 12 47 45 138 53 145 3 3 15 22 27 42 50 81 212 195 303 212 13
2 24 5 24 7 0 1 9 3 20 5 11 2 38 6 60 10 56 9 243 10 284 1 19 -4 53 -17 77
-27 24 -11 48 -20 54 -20 6 0 8 -4 5 -10 -3 -5 1 -10 9 -10 9 0 16 -4 16 -10
0 -5 4 -10 10 -10 9 0 86 -78 140 -139 30 -36 93 -38 120 -4 11 14 16 30 13
37 -7 11 -9 16 -12 35 0 5 -7 16 -15 23 -7 8 -16 32 -19 54 -3 21 -8 53 -12
69 -7 33 -51 85 -73 85 -7 0 -20 7 -29 15 -8 8 -19 13 -24 9 -6 -3 -15 -1 -22
4 -11 9 -54 22 -87 27 -8 1 -28 6 -45 9 -30 7 -321 17 -327 11z"/>
<path d="M14937 12033 c-5 -4 -17 -7 -87 -18 -25 -4 -54 -9 -65 -12 -11 -2
-34 -6 -50 -7 -17 -1 -35 -4 -40 -8 -6 -3 -35 -9 -65 -13 -78 -10 -95 -13 -95
-15 0 -2 -13 -4 -30 -5 -16 -2 -30 -4 -30 -5 0 -2 -23 -6 -72 -14 -21 -3 -64
-10 -95 -16 -31 -6 -70 -13 -85 -15 -15 -2 -38 -6 -49 -9 -33 -7 -96 -17 -129
-21 -93 -11 -120 -51 -111 -164 3 -42 7 -85 10 -96 2 -11 5 -25 5 -30 1 -10
62 -52 69 -47 1 1 16 9 32 17 30 15 34 25 45 103 5 37 45 104 45 76 0 -5 4 -3
9 4 4 7 18 14 29 15 12 1 22 5 22 9 0 3 8 7 18 6 9 0 37 2 62 5 26 3 51 0 59
-7 8 -6 16 -10 18 -8 13 10 41 -22 48 -57 2 -9 13 -54 25 -101 11 -47 23 -92
25 -100 2 -8 8 -35 14 -60 7 -25 13 -53 16 -63 2 -10 6 -26 9 -35 3 -9 7 -28
10 -42 2 -14 14 -63 26 -110 12 -47 24 -94 27 -105 9 -40 11 -50 13 -50 1 0 3
-9 5 -20 2 -17 15 -70 30 -127 3 -10 7 -26 9 -35 2 -10 9 -38 15 -63 13 -51
18 -73 27 -115 3 -16 9 -34 12 -40 3 -5 7 -21 8 -35 0 -14 2 -29 4 -35 8 -33
-20 -65 -83 -94 -26 -12 -45 -26 -42 -31 4 -6 2 -10 -4 -10 -5 0 -6 -11 -2
-27 13 -51 91 -72 164 -44 15 6 27 9 27 6 0 -2 16 3 36 11 20 8 39 13 42 10 3
-3 11 -1 17 4 7 6 53 13 101 16 156 9 184 15 203 45 33 54 -14 100 -105 104
-24 2 -51 8 -59 15 -8 7 -15 9 -15 4 -1 -14 -29 55 -32 79 -2 12 -7 28 -11 35
-5 6 -6 12 -3 12 3 0 -1 17 -8 38 -7 20 -11 43 -9 50 3 6 1 12 -4 12 -4 0 -9
10 -10 23 -5 47 -15 97 -22 97 -3 0 -7 12 -8 27 0 15 -6 43 -12 63 -10 33 -66
259 -76 306 -3 12 -27 112 -55 223 -27 111 -50 212 -50 226 0 26 56 89 71 79
5 -3 15 -2 22 3 20 13 130 12 157 -2 14 -7 44 -34 66 -58 55 -63 85 -73 122
-42 40 33 38 58 -15 178 -9 20 -20 37 -25 37 -4 0 -8 6 -8 14 0 28 -95 77
-113 59z"/>
<path d="M13756 11805 c-20 -7 -36 -10 -36 -8 0 3 -6 1 -12 -5 -7 -6 -17 -11
-23 -11 -5 -1 -28 -7 -50 -13 -45 -12 -75 -16 -190 -22 -113 -7 -148 -19 -157
-54 -13 -49 24 -78 109 -87 60 -6 99 -35 108 -82 5 -21 9 -42 11 -48 2 -5 5
-19 7 -30 3 -11 10 -40 17 -65 7 -25 14 -55 16 -67 2 -12 8 -33 13 -45 5 -13
9 -27 10 -33 1 -17 33 -159 39 -175 3 -8 4 -19 3 -24 -1 -4 3 -14 9 -20 5 -7
7 -16 4 -19 -3 -3 -2 -12 2 -19 5 -7 10 -24 12 -38 1 -14 5 -32 9 -40 3 -8 8
-24 9 -35 3 -17 8 -36 19 -77 2 -5 4 -11 5 -15 1 -5 3 -12 5 -18 1 -5 3 -12 4
-15 2 -3 4 -14 6 -25 2 -11 6 -31 10 -45 3 -14 8 -32 10 -40 2 -8 4 -16 5 -17
2 -2 4 -12 5 -23 1 -11 3 -21 4 -22 2 -2 4 -14 7 -28 2 -14 7 -32 10 -40 4 -8
8 -26 10 -40 14 -103 14 -104 -68 -144 -32 -16 -58 -35 -58 -42 0 -19 -16 -18
-40 3 -13 12 -39 17 -85 18 -64 2 -117 20 -155 55 -30 27 -60 50 -65 50 -5 0
-37 25 -60 48 -8 6 -18 12 -24 12 -5 0 -15 8 -20 18 -6 9 -11 13 -11 7 0 -6
-3 -6 -8 0 -4 6 -36 33 -72 60 -36 28 -67 52 -70 55 -3 3 -48 37 -100 75 -52
38 -96 72 -98 77 -2 4 -10 8 -17 8 -7 0 -15 4 -17 8 -1 4 -50 43 -108 86 -98
74 -128 106 -99 106 7 0 9 3 6 6 -4 4 2 19 12 33 9 14 23 41 30 59 8 17 18 32
23 32 5 0 7 4 3 9 -3 5 -1 13 5 16 6 4 24 34 41 68 42 86 62 121 74 129 6 4 6
8 2 8 -5 0 0 12 10 28 11 15 32 53 48 85 16 32 38 63 49 69 11 6 27 17 34 25
8 7 18 11 23 8 5 -4 9 -1 9 4 0 6 6 11 14 11 22 0 55 33 59 60 8 53 -76 84
-150 54 -18 -7 -33 -10 -33 -7 0 3 -6 1 -13 -5 -17 -15 -59 -23 -147 -28 -112
-7 -151 -19 -172 -56 -17 -32 -16 -40 8 -67 18 -19 31 -23 78 -22 31 0 61 3
66 6 17 10 24 -26 10 -48 -7 -11 -24 -41 -38 -66 -14 -25 -34 -59 -44 -76 -24
-41 -42 -78 -40 -87 1 -5 -2 -8 -7 -8 -5 0 -17 -18 -27 -40 -10 -22 -21 -40
-25 -40 -4 0 -10 -13 -14 -30 -4 -16 -10 -30 -13 -30 -4 0 -25 -35 -47 -77
-22 -43 -43 -80 -46 -83 -4 -3 -19 -30 -35 -60 -15 -30 -33 -58 -38 -62 -6 -4
-7 -8 -2 -8 11 0 -14 -30 -25 -30 -5 0 -8 3 -7 8 1 4 -4 25 -10 47 -6 22 -13
51 -16 65 -2 14 -5 25 -6 25 -2 0 -9 33 -15 65 -2 14 -4 25 -5 25 -1 0 -3 8
-6 18 -2 9 -6 25 -8 35 -3 9 -5 17 -6 17 -1 0 -3 7 -5 15 -7 32 -32 137 -47
200 -7 30 -12 65 -10 78 3 22 32 47 62 54 8 2 21 9 28 16 8 7 17 10 21 7 4 -2
21 9 36 25 25 26 27 32 16 58 -9 22 -22 31 -55 39 -47 10 -97 1 -207 -39 -51
-19 -84 -24 -152 -24 -48 1 -87 -1 -87 -4 0 -3 -13 -6 -28 -6 -46 -2 -99 -33
-112 -64 -10 -23 -9 -33 6 -54 9 -15 19 -25 21 -22 2 2 20 0 39 -4 19 -4 36
-4 39 0 6 9 52 2 82 -12 21 -10 59 -85 49 -95 -2 -3 2 -20 10 -39 8 -19 12
-34 9 -34 -2 0 0 -11 5 -26 6 -14 13 -39 16 -57 8 -43 12 -62 14 -64 2 -2 3
-6 4 -10 8 -31 17 -71 21 -88 2 -11 8 -35 14 -52 5 -18 7 -33 4 -33 -3 0 0 -7
7 -15 7 -8 10 -15 7 -15 -3 0 2 -26 10 -57 8 -32 17 -65 18 -73 2 -8 8 -30 14
-48 5 -18 10 -35 10 -37 1 -3 1 -6 2 -7 0 -2 2 -12 4 -23 2 -11 6 -31 10 -45
4 -14 8 -34 10 -45 2 -11 4 -20 5 -20 2 0 10 -33 15 -60 2 -11 4 -20 5 -20 1
0 3 -7 5 -15 2 -8 7 -26 10 -40 4 -14 8 -35 10 -47 2 -11 7 -32 11 -45 4 -12
8 -33 9 -46 1 -12 4 -25 8 -28 3 -3 1 -18 -4 -34 -9 -25 -39 -46 -80 -54 -36
-8 -79 -29 -80 -39 0 -7 -2 -19 -4 -28 -1 -8 3 -23 10 -32 12 -17 79 -50 86
-42 3 2 16 6 29 8 14 3 45 13 70 22 25 9 54 18 65 20 11 1 29 6 40 11 11 5 57
9 102 9 46 0 83 2 83 6 0 3 10 6 23 6 35 2 54 8 71 22 9 7 16 10 16 5 0 -5 9
4 19 20 15 23 17 34 9 52 -13 28 -35 36 -103 39 -27 1 -57 6 -67 9 -17 8 -34
42 -42 86 -3 14 -9 40 -15 58 -5 18 -10 36 -11 40 0 4 -3 16 -5 27 -3 11 -7
29 -9 40 -1 11 -5 27 -9 35 -3 8 -11 37 -18 64 -10 41 -10 51 2 60 8 6 15 18
17 26 2 8 10 22 18 31 8 8 14 19 14 24 0 6 44 81 66 114 2 1 9 -2 16 -8 45
-38 66 -55 91 -69 15 -9 27 -20 27 -24 0 -4 4 -8 10 -8 5 0 18 -6 27 -14 10
-8 65 -50 123 -93 58 -43 111 -84 118 -90 7 -7 17 -13 21 -13 5 0 19 -10 33
-22 14 -13 52 -41 83 -63 32 -22 63 -45 69 -51 14 -13 176 -95 176 -88 0 2 16
-3 36 -11 117 -49 284 -37 321 23 9 15 18 29 20 31 2 2 11 -3 21 -12 27 -25
64 -35 97 -26 44 12 87 21 108 22 9 1 17 5 17 10 0 5 6 7 14 4 7 -3 18 -1 24
5 5 5 38 11 73 13 35 2 64 4 64 5 0 1 28 3 62 4 103 6 142 33 127 90 -8 32
-62 50 -171 58 -7 1 -10 5 -7 10 3 4 1 8 -4 8 -14 0 -35 57 -28 75 3 8 1 15
-4 15 -6 0 -10 6 -10 14 0 8 -57 243 -126 523 -127 512 -140 573 -122 573 5 0
7 4 3 10 -3 5 4 19 15 30 11 11 25 18 30 15 6 -4 10 -1 10 4 0 6 3 10 8 9 11
-2 46 14 54 26 12 17 9 59 -6 78 -16 22 -75 28 -120 13z"/>
<path d="M8977 11003 c-2 -1 -19 -4 -37 -7 -107 -14 -236 -104 -271 -188 -6
-16 -15 -28 -19 -28 -6 0 -30 -71 -35 -105 -1 -5 -5 -17 -8 -25 -3 -8 -8 -30
-11 -49 l-5 -33 46 7 c24 3 55 9 66 11 46 10 63 13 97 18 19 3 46 7 60 10 14
3 36 8 50 11 53 11 76 16 100 20 14 2 35 6 46 9 12 2 37 7 55 10 60 10 94 17
109 21 24 7 93 18 118 19 12 1 22 4 22 9 0 4 3 6 8 6 25 -4 61 3 77 15 15 11
17 17 7 28 -6 8 -9 18 -5 21 3 4 1 7 -5 7 -7 0 -12 6 -12 14 0 15 -86 106
-100 106 -5 0 -15 6 -22 13 -21 21 -111 56 -188 74 -20 4 -140 10 -143 6z"/>
<path d="M9377 10523 c-2 -1 -34 -5 -72 -8 -39 -3 -83 -8 -100 -10 -97 -14
-141 -22 -175 -30 -14 -3 -32 -8 -40 -10 -8 -2 -16 -4 -17 -5 -4 -3 -12 -5
-58 -15 -22 -4 -55 -14 -72 -22 -18 -7 -36 -13 -40 -13 -13 0 -97 -33 -107
-42 -6 -4 -16 -8 -23 -8 -12 0 -141 -60 -193 -90 -14 -8 -28 -14 -32 -15 -3 0
-17 -9 -30 -20 -14 -11 -30 -21 -36 -22 -16 -4 -156 -104 -160 -115 -2 -4 -8
-8 -13 -8 -9 0 -24 -12 -92 -72 -22 -21 -45 -38 -49 -38 -4 0 -8 -4 -8 -8 0
-5 -30 -40 -67 -80 -85 -90 -89 -95 -135 -156 -20 -28 -42 -56 -48 -63 -5 -7
-10 -17 -10 -23 0 -5 -4 -10 -10 -10 -5 0 -10 -7 -10 -15 0 -8 -4 -15 -10 -15
-5 0 -12 -11 -16 -24 -3 -14 -12 -27 -21 -30 -8 -3 -12 -10 -9 -15 4 -5 0 -15
-7 -23 -51 -53 -212 -456 -232 -583 -2 -11 -7 -31 -13 -45 -5 -14 -10 -28 -10
-33 -1 -13 -14 -91 -19 -112 -15 -57 -24 -192 -16 -234 5 -28 7 -31 15 -16 6
9 11 22 12 28 1 7 7 21 13 32 14 26 113 325 113 342 0 7 5 13 10 13 6 0 9 3 8
8 -3 15 14 82 21 78 4 -3 7 4 8 14 1 10 15 47 31 82 16 35 30 68 31 73 1 6 8
17 14 25 7 8 17 24 23 35 43 80 69 124 85 147 11 14 19 31 19 36 0 6 6 17 13
24 7 7 30 38 51 68 54 77 52 75 152 175 123 123 284 257 380 315 21 13 41 26
44 29 15 17 198 109 204 103 3 -3 6 0 6 6 0 7 6 12 13 12 6 0 24 7 39 14 37
19 243 87 256 84 4 0 14 1 22 5 27 10 143 27 151 21 5 -3 9 -2 9 3 0 16 375
24 500 9 36 -4 79 -8 95 -10 17 -2 30 -5 30 -6 0 -1 11 -3 25 -4 53 -6 115
-18 125 -25 6 -4 24 -8 40 -10 17 -2 36 -8 43 -13 6 -6 12 -8 12 -4 0 3 16 0
35 -8 19 -8 35 -12 35 -9 0 3 7 0 15 -7 8 -7 15 -9 15 -5 0 4 6 3 13 -2 6 -6
30 -16 52 -23 22 -7 52 -19 67 -27 15 -7 31 -14 35 -14 5 0 16 -8 26 -16 9 -9
17 -13 17 -9 0 8 114 -55 118 -66 2 -4 12 -8 23 -8 10 0 19 -4 19 -8 0 -5 12
-15 28 -23 15 -8 32 -17 37 -21 166 -125 193 -147 289 -244 69 -69 96 -100
170 -194 20 -25 40 -49 44 -55 52 -65 265 -412 267 -435 1 -3 6 -14 12 -25 37
-68 64 -194 41 -196 -7 0 -20 -2 -28 -4 -8 -2 -28 -7 -45 -10 -16 -3 -57 -12
-90 -20 -33 -8 -71 -17 -85 -19 -14 -2 -26 -5 -27 -7 -2 -1 -12 -3 -23 -4 -11
-1 -22 -4 -25 -5 -7 -3 -13 -5 -65 -15 -52 -10 -58 -12 -65 -15 -3 -1 -14 -4
-25 -5 -11 -1 -21 -3 -22 -5 -5 -3 -41 -11 -110 -24 -50 -10 -85 -18 -137 -31
-30 -8 -58 -12 -63 -9 -4 3 -8 2 -8 -3 0 -4 -17 -9 -37 -11 -20 -1 -41 -6 -47
-11 -6 -4 -18 -8 -26 -9 -19 0 -115 -19 -115 -22 0 -1 -10 -3 -22 -6 -13 -2
-33 -6 -45 -8 -13 -3 -25 -5 -28 -6 -3 -1 -9 -3 -15 -5 -5 -1 -12 -3 -15 -4
-3 -2 -14 -4 -25 -6 -38 -5 -90 -16 -122 -25 -18 -4 -33 -6 -33 -3 0 3 -7 0
-15 -7 -8 -7 -15 -10 -15 -7 0 3 -19 0 -42 -5 -24 -5 -54 -12 -68 -15 -45 -9
-55 -11 -55 -14 0 -1 -9 -3 -20 -4 -11 -2 -31 -5 -45 -8 -14 -3 -35 -8 -48
-11 -13 -3 -31 -7 -40 -10 -9 -3 -33 -8 -52 -12 -45 -8 -65 -12 -65 -14 0 -2
-14 -5 -60 -13 -62 -12 -90 -18 -107 -23 -21 -6 -64 -15 -93 -19 -11 -2 -20
-4 -20 -5 0 -1 -7 -3 -15 -5 -28 -5 -135 -29 -145 -31 -5 -2 -23 -6 -40 -9
-16 -3 -38 -8 -47 -11 -10 -3 -30 -8 -45 -11 -42 -8 -58 -11 -58 -13 0 -1 -11
-3 -25 -6 -14 -2 -59 -11 -100 -20 -41 -9 -84 -18 -95 -19 -11 -2 -20 -4 -20
-5 0 -1 -7 -3 -15 -5 -8 -2 -28 -6 -45 -10 -16 -3 -39 -8 -50 -9 -11 -2 -20
-4 -20 -5 0 -2 -10 -4 -22 -7 -13 -2 -33 -6 -45 -8 -13 -3 -23 -5 -23 -7 0 -1
-9 -3 -20 -4 -17 -2 -70 -13 -190 -41 -11 -3 -29 -7 -40 -9 -11 -2 -33 -7 -50
-10 -55 -12 -60 -13 -70 -14 -5 -1 -4 -5 4 -10 8 -5 19 -8 25 -6 6 2 47 6 91
9 44 3 91 8 105 10 14 3 48 7 75 11 67 8 229 33 285 45 25 5 63 12 84 15 21 3
48 7 60 10 12 2 38 7 58 10 21 2 58 9 83 15 26 6 51 8 56 5 5 -4 9 -1 9 4 0 6
3 10 8 9 8 -2 123 15 145 22 12 4 20 6 70 14 27 4 57 9 68 12 37 8 55 11 124
24 39 7 75 17 82 22 7 5 14 5 18 -2 4 -7 12 -7 25 0 10 6 34 12 52 14 18 3 33
5 33 6 0 1 9 3 20 5 11 2 36 7 55 11 19 3 49 8 65 11 17 3 63 11 103 19 41 7
77 13 80 12 4 -1 14 1 22 4 12 5 192 38 345 64 17 3 44 8 60 13 17 4 40 7 53
6 12 -1 22 1 22 5 0 4 26 10 58 14 78 10 94 13 192 31 97 18 152 26 195 30 17
2 31 4 33 5 4 4 14 6 87 14 39 5 79 10 90 12 10 2 35 6 55 9 20 3 45 7 55 9
41 8 109 18 139 22 17 2 53 8 80 14 26 5 52 7 57 4 5 -3 9 -1 9 4 0 5 6 9 13
9 17 1 82 11 82 13 0 3 39 10 72 14 37 4 90 35 77 45 -5 3 -10 22 -12 41 -3
39 -6 58 -15 80 -3 8 -15 47 -28 85 -13 39 -26 74 -31 80 -4 5 -8 17 -8 27 0
10 -4 18 -10 18 -5 0 -10 6 -10 13 0 6 -18 49 -40 95 -22 45 -40 87 -40 92 0
6 -3 10 -8 10 -4 0 -13 14 -21 30 -49 111 -194 320 -299 428 -32 34 -58 62
-56 62 1 0 -32 33 -74 73 -41 39 -96 92 -121 117 -38 37 -95 84 -206 168 -17
13 -69 46 -90 58 -11 6 -37 20 -57 32 -43 25 -121 66 -128 67 -3 1 -18 8 -35
15 -16 7 -33 13 -37 12 -5 -1 -8 3 -8 8 0 5 -3 9 -7 8 -8 -1 -25 4 -68 22 -24
10 -54 20 -58 19 -1 0 -26 9 -54 20 -29 11 -53 18 -53 15 0 -4 -6 -1 -14 5 -8
6 -18 11 -22 10 -5 -1 -11 0 -14 1 -3 1 -12 3 -20 5 -27 7 -59 15 -82 21 -13
3 -33 7 -45 9 -12 2 -34 6 -50 9 -38 8 -105 19 -208 31 -43 6 -394 13 -398 8z"/>
<path d="M4090 10411 c-19 -9 -39 -18 -45 -20 -17 -6 -100 -64 -107 -75 -3 -6
-18 -24 -32 -41 -14 -16 -31 -42 -37 -57 -6 -15 -16 -28 -21 -28 -5 0 -7 -4
-3 -9 3 -5 -2 -17 -11 -25 -8 -9 -13 -16 -10 -16 4 0 -12 -35 -34 -77 -22 -43
-40 -83 -40 -90 0 -7 -4 -13 -10 -13 -5 0 -12 -11 -16 -25 -3 -13 -12 -29 -20
-36 -8 -6 -11 -15 -8 -20 3 -5 0 -9 -7 -9 -7 0 -9 -3 -6 -7 4 -3 3 -11 -2 -17
-10 -12 -32 -50 -99 -171 -24 -44 -54 -98 -67 -120 -13 -22 -22 -42 -21 -45 0
-3 -9 -18 -20 -35 -12 -16 -39 -64 -60 -105 -21 -41 -41 -77 -44 -80 -3 -3
-16 -27 -30 -55 -14 -27 -41 -80 -62 -117 -20 -38 -35 -68 -32 -68 2 0 -7 -18
-21 -40 -14 -22 -22 -40 -19 -40 4 0 -1 -9 -12 -21 -10 -12 -17 -22 -16 -23 6
-2 -22 -61 -33 -68 -5 -4 -7 -8 -2 -8 4 0 0 -15 -10 -32 -9 -18 -18 -35 -18
-38 -1 -3 -9 -23 -19 -45 -10 -22 -29 -69 -42 -105 -14 -36 -28 -72 -31 -80
-21 -51 -51 -207 -42 -221 6 -10 17 -9 51 5 38 15 108 67 108 81 0 3 16 27 36
55 20 27 33 50 30 50 -3 0 6 21 19 46 14 26 22 50 20 55 -3 4 -1 10 4 13 5 4
17 30 27 59 9 28 19 57 23 62 3 6 6 12 7 15 0 3 7 19 14 35 7 17 14 32 15 35
5 16 31 67 40 77 5 7 24 30 40 52 42 55 111 85 182 77 29 -3 70 -13 90 -22 21
-10 41 -16 45 -16 4 1 20 -3 35 -9 59 -24 145 0 159 44 6 18 -23 48 -51 54
-40 8 -166 47 -192 59 -18 8 -46 26 -63 40 -27 23 -30 31 -25 61 3 19 9 42 14
51 5 9 10 22 11 27 6 37 82 164 132 221 30 34 34 35 77 29 59 -8 153 -41 211
-73 208 -117 254 -140 306 -156 32 -10 66 -22 75 -27 9 -4 19 -6 22 -3 6 6
-12 77 -22 84 -3 3 -13 18 -21 34 -21 40 -160 178 -160 159 0 -5 -5 0 -10 9
-6 9 -23 23 -38 30 -37 19 -76 42 -82 48 -5 6 -61 33 -70 34 -16 3 -70 42 -70
51 0 9 15 29 60 83 6 6 23 36 37 64 21 43 27 69 29 138 3 119 14 257 24 290 5
16 6 31 3 34 -3 3 0 12 6 20 19 22 -1 26 -39 7z"/>
<path d="M2970 10062 c0 -7 -6 -12 -13 -12 -21 0 -315 -299 -366 -372 -8 -13
-23 -29 -33 -36 -10 -7 -18 -18 -18 -24 0 -6 -8 -18 -18 -27 -9 -9 -37 -41
-62 -71 -25 -30 -47 -57 -50 -60 -19 -19 -70 -91 -70 -99 0 -6 -4 -11 -8 -11
-4 0 -23 -25 -41 -55 -18 -30 -38 -55 -43 -55 -5 0 -7 -4 -4 -9 3 -4 -3 -18
-13 -30 -10 -12 -24 -35 -31 -51 -7 -17 -17 -30 -22 -30 -5 0 -6 -4 -3 -10 3
-5 1 -10 -4 -10 -6 0 -11 -4 -11 -9 0 -5 -20 -43 -45 -85 -66 -112 -125 -226
-117 -226 4 0 2 -4 -3 -8 -12 -8 -58 -107 -108 -233 -73 -181 -134 -408 -152
-559 -8 -68 -16 -169 -16 -192 0 -10 0 -34 0 -53 0 -19 0 -41 0 -47 0 -29 10
-163 15 -192 2 -17 8 -53 12 -81 3 -27 9 -59 11 -70 3 -11 9 -39 13 -62 31
-145 89 -322 152 -462 55 -123 72 -157 86 -173 8 -10 12 -18 8 -18 -4 0 2 -12
13 -26 12 -15 21 -30 21 -35 0 -9 139 -219 155 -234 6 -5 29 -32 51 -60 51
-64 175 -189 239 -240 27 -22 55 -44 62 -50 98 -80 354 -257 456 -316 77 -44
300 -152 314 -152 7 0 13 -4 13 -8 0 -3 10 -9 23 -12 12 -3 67 -21 121 -41 55
-19 103 -33 108 -30 4 3 8 1 8 -4 0 -8 23 -15 158 -49 34 -8 62 -19 62 -25 0
-5 4 -7 8 -4 7 4 115 -18 152 -31 8 -3 22 -7 30 -8 8 -1 38 -7 65 -13 28 -6
64 -14 80 -16 17 -2 30 -5 30 -6 0 -2 31 -8 70 -14 17 -3 57 -10 90 -16 33 -6
76 -13 95 -15 19 -3 49 -7 65 -10 17 -2 53 -7 80 -11 28 -3 57 -7 65 -9 8 -2
51 -6 95 -10 44 -4 91 -8 105 -10 14 -2 70 -7 125 -10 55 -3 141 -9 190 -12
124 -10 605 -15 624 -7 9 3 50 7 91 9 41 2 89 6 105 9 17 2 55 8 85 11 30 4
62 11 70 15 8 4 49 11 90 15 147 13 235 23 235 25 0 0 26 3 58 5 32 2 75 6 95
9 20 3 64 8 97 11 33 3 71 7 85 9 84 12 126 19 130 21 3 2 30 6 60 10 30 4 63
11 72 16 12 7 18 6 18 -1 0 -6 5 -8 13 -3 14 9 18 9 95 17 94 10 146 18 172
28 30 11 90 51 90 59 0 3 -172 6 -382 6 -343 -1 -754 8 -863 18 -22 1 -86 6
-141 9 -56 4 -112 9 -125 11 -13 2 -55 6 -94 9 -38 4 -86 8 -105 11 -126 16
-213 27 -225 30 -37 7 -84 15 -110 19 -16 2 -41 7 -55 10 -14 3 -38 8 -55 11
-16 2 -50 9 -75 15 -25 6 -56 13 -70 15 -14 2 -50 11 -80 20 -30 9 -66 18 -80
21 -14 2 -36 9 -50 14 -14 5 -36 12 -50 14 -14 3 -54 14 -89 25 -36 11 -67 18
-70 16 -2 -3 -9 -1 -15 3 -6 5 -29 14 -51 20 -156 46 -214 64 -250 78 -11 4
-24 9 -30 9 -5 1 -17 5 -25 8 -51 22 -207 79 -217 80 -7 0 -13 5 -13 10 0 5
-7 7 -15 3 -8 -3 -15 -1 -15 4 0 6 -5 10 -10 10 -23 0 -300 135 -382 187 -21
13 -42 23 -48 23 -5 0 -10 5 -10 10 0 6 -5 10 -11 10 -6 0 -31 14 -56 30 -24
17 -46 30 -48 30 -7 0 -202 138 -290 204 -92 70 -118 92 -192 162 -29 28 -55
49 -58 46 -3 -3 -5 0 -5 5 0 6 -19 31 -42 56 -49 52 -109 123 -121 143 -4 8
-19 26 -33 41 -13 14 -24 32 -24 39 0 7 -4 14 -9 16 -11 4 -101 143 -101 156
0 6 -4 12 -8 14 -5 2 -31 50 -59 108 -48 99 -58 121 -62 145 -2 6 -10 18 -18
28 -9 9 -13 17 -8 17 4 0 2 7 -5 15 -7 8 -9 15 -5 15 4 0 2 7 -5 15 -7 8 -9
15 -5 15 4 0 3 6 -3 13 -8 10 -38 102 -42 129 -1 4 -6 22 -12 40 -5 18 -11 42
-14 53 -6 33 -12 60 -14 60 -4 0 -20 98 -37 220 -15 112 -7 507 13 608 2 12 6
37 9 57 3 20 8 47 11 60 3 14 7 36 9 50 8 51 22 115 25 115 2 0 10 43 12 68 1
9 5 17 8 17 3 0 7 9 8 20 4 43 6 50 13 50 4 0 6 9 4 20 -2 11 -1 20 3 20 4 0
8 8 9 19 2 24 90 287 108 322 8 14 11 29 8 33 -4 3 -1 6 5 6 6 0 13 14 17 30
4 17 11 30 16 30 5 0 8 3 7 8 -2 8 43 104 53 112 7 6 33 52 34 60 0 3 35 58
78 123 42 65 77 122 77 128 0 5 4 9 8 9 11 0 84 141 77 148 -3 3 -5 0 -5 -6z"/>
<path d="M9683 10037 c-18 -6 -33 -13 -33 -17 0 -9 59 -33 171 -68 106 -34
227 -93 267 -129 7 -7 16 -13 20 -13 4 0 20 -11 36 -25 16 -14 32 -25 36 -25
4 0 34 -26 66 -58 48 -47 137 -183 163 -247 2 -5 7 -12 11 -15 4 -3 10 -14 14
-25 5 -16 1 -20 -22 -22 -15 -1 -58 -4 -97 -7 -38 -3 -70 -6 -70 -6 0 -1 -20
-4 -45 -6 -80 -7 -95 -9 -107 -17 -7 -5 -13 -6 -13 -3 0 3 -12 1 -27 -5 -16
-6 -37 -13 -48 -15 -11 -2 -21 -8 -23 -14 -2 -6 -7 -8 -11 -6 -3 3 -17 -4 -30
-14 -24 -17 -24 -18 -4 -28 11 -6 37 -12 57 -14 20 -1 36 -6 36 -11 0 -6 5 -5
13 0 27 21 199 3 258 -27 43 -22 109 -82 109 -99 0 -9 -53 -43 -70 -46 -3 0
-15 -6 -26 -13 -12 -6 -24 -8 -28 -5 -3 3 -6 0 -6 -7 0 -7 -3 -11 -6 -7 -3 3
-26 -3 -50 -13 -24 -11 -44 -17 -44 -13 0 3 -7 0 -15 -7 -8 -7 -15 -9 -15 -5
0 4 -7 2 -15 -5 -8 -7 -15 -9 -15 -5 0 4 -7 2 -15 -5 -8 -7 -15 -10 -15 -6 0
3 -16 0 -35 -8 -20 -9 -39 -15 -43 -16 -4 0 -25 -5 -47 -11 -22 -6 -47 -13
-55 -15 -14 -3 -74 -19 -112 -29 -10 -3 -27 -7 -38 -9 -11 -3 -24 -7 -29 -10
-5 -3 -25 -8 -46 -12 -20 -3 -54 -12 -75 -19 -21 -7 -41 -11 -44 -8 -3 3 -12
0 -21 -7 -8 -7 -15 -10 -15 -7 0 3 -16 1 -36 -5 -20 -5 -46 -12 -58 -14 -31
-7 -50 -12 -56 -14 -3 -1 -9 -3 -15 -5 -5 -1 -12 -3 -15 -4 -3 -1 -16 -4 -30
-6 -35 -6 -65 -13 -65 -16 0 -1 -9 -3 -20 -5 -26 -4 -62 -12 -85 -19 -10 -3
-27 -7 -37 -9 -10 -2 -36 -9 -58 -14 -22 -6 -51 -13 -65 -16 -14 -3 -36 -8
-50 -11 -14 -3 -38 -8 -55 -11 -44 -9 -60 -12 -60 -14 0 -1 -9 -3 -20 -4 -11
-2 -40 -9 -65 -16 -39 -11 -61 -16 -79 -19 -3 -1 3 -7 12 -14 17 -12 78 -14
122 -4 26 6 87 17 100 18 6 1 17 5 25 9 9 5 37 11 64 14 26 3 51 8 56 11 4 3
25 7 46 9 43 5 318 56 459 86 50 10 104 21 120 24 17 3 42 7 58 10 44 9 80 16
117 22 42 6 59 9 128 23 29 6 56 10 60 10 4 -1 9 0 12 1 8 3 42 9 75 14 17 3
79 14 139 25 60 11 113 18 118 15 4 -3 8 -1 8 3 0 5 8 9 18 9 17 1 31 3 157
28 39 8 78 12 88 10 9 -1 17 1 17 5 0 5 21 12 46 16 54 8 53 8 173 34 144 33
138 24 84 139 -25 53 -48 105 -50 115 -3 9 -9 17 -13 17 -4 0 -10 8 -13 18 -8
23 -40 75 -52 84 -5 4 -6 8 -2 8 4 0 -3 11 -17 24 -15 13 -26 27 -26 31 0 27
-208 235 -290 290 -25 16 -47 32 -50 35 -11 11 -274 148 -285 149 -3 1 -24 9
-48 20 -36 16 -69 30 -87 36 -3 1 -13 5 -22 9 -9 4 -22 8 -30 10 -7 1 -17 4
-23 7 -10 6 -57 20 -85 25 -8 1 -26 5 -40 8 -46 11 -115 13 -147 3z"/>
<path d="M12845 8721 c-3 -3 -16 -6 -28 -8 -12 -2 -31 -7 -42 -13 -21 -10
-206 -67 -246 -76 -38 -8 -54 -12 -56 -14 -2 -2 -7 -4 -13 -5 -5 -1 -11 -3
-12 -5 -2 -1 -12 -3 -23 -5 -11 -2 -35 -8 -52 -13 -18 -6 -33 -9 -33 -6 0 3
-8 0 -17 -5 -10 -5 -31 -12 -48 -15 -16 -3 -48 -10 -70 -16 -22 -7 -50 -12
-62 -13 -13 0 -23 -4 -23 -8 0 -4 -8 -6 -17 -4 -10 1 -23 -2 -30 -7 -7 -5 -17
-7 -23 -3 -5 3 -10 2 -10 -2 0 -5 -8 -9 -17 -9 -26 -2 -64 -10 -95 -23 -16 -6
-28 -8 -28 -6 0 2 -11 0 -26 -5 -14 -6 -37 -12 -52 -15 -15 -3 -54 -12 -87
-20 -33 -9 -69 -17 -81 -19 -11 -1 -25 -6 -31 -9 -5 -3 -23 -8 -39 -11 -16 -3
-54 -13 -84 -21 -30 -8 -64 -17 -75 -19 -11 -3 -33 -7 -50 -11 -16 -3 -39 -9
-50 -12 -23 -8 -31 -10 -65 -17 -14 -3 -38 -9 -55 -13 -16 -4 -36 -6 -42 -4
-7 1 -13 -2 -13 -7 0 -5 -6 -9 -12 -9 -30 -2 -103 -16 -133 -26 -30 -9 -77
-19 -102 -20 -13 -1 -23 -5 -23 -10 0 -4 -4 -6 -8 -3 -5 3 -24 1 -43 -4 -19
-5 -50 -12 -69 -15 -19 -3 -42 -8 -50 -10 -8 -2 -26 -6 -40 -9 -14 -3 -36 -8
-50 -11 -14 -3 -40 -8 -59 -11 -18 -3 -42 -8 -52 -10 -11 -2 -27 -6 -38 -8
-10 -2 -34 -7 -52 -10 -19 -3 -45 -8 -59 -11 -14 -3 -36 -7 -50 -10 -14 -3
-36 -7 -50 -10 -14 -3 -38 -7 -55 -10 -16 -2 -40 -6 -51 -9 -12 -2 -37 -7 -55
-10 -19 -3 -45 -8 -59 -11 -14 -4 -38 -8 -55 -11 -16 -3 -41 -8 -55 -10 -14
-3 -36 -7 -50 -9 -56 -9 -87 -14 -120 -20 -19 -4 -46 -9 -60 -10 -14 -2 -25
-4 -25 -5 0 -2 -13 -4 -30 -5 -16 -2 -31 -4 -32 -5 -2 -1 -12 -4 -23 -5 -11
-1 -21 -3 -22 -4 -2 -1 -19 -4 -38 -6 -19 -2 -48 -7 -65 -10 -16 -4 -47 -8
-68 -10 -21 -2 -46 -6 -55 -9 -16 -5 -70 -14 -132 -21 -14 -2 -25 -4 -25 -5 0
-1 -11 -3 -25 -5 -29 -3 -101 -14 -145 -21 -50 -9 -68 -12 -120 -19 -27 -3
-61 -8 -75 -11 -14 -2 -43 -7 -65 -9 -22 -3 -51 -8 -65 -10 -14 -2 -47 -7 -75
-10 -27 -4 -57 -8 -65 -10 -13 -4 -37 -7 -150 -20 -14 -2 -38 -6 -55 -9 -16
-3 -52 -8 -80 -11 -27 -4 -65 -8 -82 -11 -74 -10 -179 -23 -228 -29 -44 -5
-136 -16 -170 -21 -16 -2 -52 -6 -80 -9 -27 -3 -63 -7 -80 -9 -28 -4 -104 -12
-197 -22 -21 -2 -57 -6 -80 -9 -24 -2 -81 -7 -128 -10 -47 -3 -116 -8 -155
-11 -38 -2 -109 -6 -157 -7 -49 -1 -88 -4 -88 -7 0 -3 -30 -6 -68 -7 -37 -1
-105 -5 -152 -8 -47 -4 -95 -8 -107 -9 -12 -1 -25 -5 -28 -8 -4 -4 -17 -4 -30
-2 -38 7 -39 -13 -2 -25 44 -15 72 -20 127 -26 323 -32 1633 -26 1940 9 19 2
73 7 120 10 47 4 101 9 120 11 19 2 87 9 150 15 63 6 131 13 150 16 19 2 62 6
95 10 55 5 71 7 130 19 11 2 45 6 75 9 30 4 66 8 80 10 14 2 48 8 75 12 28 4
56 8 63 10 8 1 46 8 85 14 86 15 70 12 230 44 71 15 132 24 137 21 4 -3 10 -2
12 3 2 6 346 87 413 97 11 2 20 4 20 5 0 2 15 6 55 14 14 3 108 27 210 52 101
26 189 47 195 49 5 1 17 5 25 8 17 7 126 37 150 41 8 2 22 6 30 9 8 3 85 26
170 52 85 25 170 53 189 62 19 8 44 16 57 17 13 0 24 3 24 6 0 4 17 12 38 19
20 7 53 18 72 26 36 14 58 21 75 25 6 1 15 5 20 10 8 6 69 29 95 35 3 1 19 7
35 14 17 7 73 28 125 48 52 19 104 38 115 43 11 5 58 23 105 41 47 17 112 41
145 54 78 29 95 35 98 33 1 -1 13 5 27 12 14 8 27 15 30 15 33 8 66 19 70 24
3 3 39 17 80 31 41 13 80 27 85 30 6 4 33 14 60 24 28 10 57 20 65 23 8 4 17
7 20 8 25 9 40 19 40 27 0 5 -4 6 -10 3 -5 -3 -10 -2 -10 3 0 10 -86 13 -95 3z"/>
<path d="M8095 8080 c3 -5 8 -10 11 -10 2 0 4 5 4 10 0 6 -5 10 -11 10 -5 0
-7 -4 -4 -10z"/>
<path d="M11287 7814 c-1 -1 -27 -5 -57 -8 -58 -5 -98 -11 -140 -21 -14 -3
-36 -8 -49 -11 -13 -3 -32 -9 -43 -15 -10 -5 -18 -7 -18 -4 0 3 -10 0 -22 -7
-13 -6 -29 -13 -35 -14 -36 -6 -255 -124 -295 -159 -13 -10 -23 -17 -23 -15 0
5 -186 -132 -211 -155 -18 -16 -84 -69 -180 -145 -49 -38 -93 -73 -99 -77 -36
-29 -165 -109 -222 -138 -141 -70 -245 -94 -395 -90 -130 3 -190 19 -333 93
-49 26 -94 47 -98 47 -4 0 -12 7 -17 15 -5 8 -10 12 -10 7 0 -4 -18 4 -40 18
-21 13 -45 26 -52 27 -7 2 -15 6 -18 9 -6 8 -163 81 -210 98 -19 7 -44 17 -55
21 -20 8 -66 21 -95 26 -8 2 -28 6 -45 9 -38 8 -214 10 -240 3 -11 -3 -34 -9
-51 -13 -44 -10 -71 -75 -32 -75 35 0 310 -153 384 -213 10 -9 45 -37 77 -62
31 -25 57 -51 57 -56 0 -6 4 -8 8 -5 4 2 31 -16 59 -42 137 -127 345 -292 369
-292 4 0 15 -6 23 -14 23 -20 149 -68 160 -62 5 4 11 1 13 -5 2 -6 27 -12 55
-14 28 -1 55 -4 60 -7 19 -9 144 4 212 22 19 5 38 7 43 4 4 -3 8 0 8 6 0 7 6
10 14 7 7 -3 23 1 35 9 11 8 21 13 21 10 0 -2 30 10 68 28 37 18 82 39 100 47
17 8 32 17 32 21 0 5 6 8 13 8 7 0 31 13 53 30 21 16 43 30 47 30 5 0 15 6 22
13 19 17 32 27 88 69 57 44 158 133 249 220 66 64 170 161 300 280 40 37 94
86 120 110 74 69 111 101 158 138 24 19 52 43 62 53 10 9 23 17 28 17 6 0 10
5 10 10 0 6 7 10 16 10 8 0 12 5 9 10 -3 6 0 10 8 10 8 0 22 9 32 20 10 11 22
20 27 20 5 0 16 7 25 15 8 8 19 13 24 10 5 -4 9 -1 9 4 0 6 6 11 14 11 7 0 19
6 25 14 6 8 31 19 56 25 32 8 47 18 58 39 l14 28 -89 0 c-49 0 -89 -1 -91 -2z"/>
<path d="M8479 6775 c-3 -2 -16 -7 -30 -9 -13 -2 -24 -5 -24 -6 0 -1 -9 -3
-20 -5 -11 -2 -31 -6 -45 -9 -14 -3 -48 -11 -77 -17 l-52 -12 21 -31 c25 -37
62 -71 101 -94 15 -9 27 -20 27 -24 0 -4 6 -8 14 -8 7 0 25 -9 40 -21 14 -11
26 -18 26 -14 0 3 15 -5 33 -18 17 -13 39 -27 47 -31 8 -3 38 -20 65 -36 113
-68 379 -183 445 -194 16 -2 35 -8 42 -12 7 -5 18 -9 23 -10 34 -7 52 -12 65
-17 13 -5 150 -42 190 -52 8 -2 15 -4 15 -5 0 -1 8 -3 18 -5 25 -5 29 -9 22
-26 -7 -16 -89 -79 -103 -79 -5 0 -17 -9 -27 -20 -10 -11 -22 -17 -26 -14 -5
3 -9 1 -9 -3 0 -5 -16 -15 -35 -22 -19 -7 -35 -17 -35 -23 0 -6 -3 -9 -6 -5
-3 3 -34 -9 -68 -27 -33 -17 -84 -42 -112 -54 -28 -12 -80 -34 -115 -51 -35
-16 -81 -35 -101 -42 -21 -7 -38 -17 -38 -21 0 -4 -3 -7 -7 -6 -7 3 -86 -29
-200 -79 -18 -7 -35 -13 -38 -13 -3 0 -18 -6 -33 -14 -45 -24 -106 -49 -119
-49 -7 0 -10 -4 -7 -9 6 -9 33 -6 51 5 6 4 15 2 19 -4 5 -8 8 -8 14 0 4 7 17
13 28 14 12 1 22 4 22 7 0 3 11 6 25 7 46 4 55 6 55 15 0 5 4 7 8 4 6 -4 144
38 202 61 8 3 20 7 25 9 39 11 180 66 189 73 6 5 13 9 16 8 7 -2 94 30 147 54
24 10 45 19 48 19 4 0 192 78 305 127 97 42 360 176 360 184 0 5 7 9 15 9 8 0
15 5 15 12 0 6 -3 8 -6 5 -4 -3 -16 -1 -27 5 -11 5 -68 12 -126 14 -209 8
-258 16 -426 65 -22 6 -42 12 -45 12 -3 0 -26 11 -53 24 -26 13 -51 22 -56 18
-5 -3 -11 -2 -13 2 -1 5 -48 30 -103 57 -55 27 -101 53 -103 57 -2 5 -9 9 -16
9 -6 0 -27 13 -46 30 -19 16 -39 29 -43 30 -9 0 -20 10 -167 150 -95 90 -120
109 -146 110 -17 0 -33 -2 -35 -5z"/>
</g>
</svg>
